NotoSans-Medium.ufo
<glyph name="dollar" format="2">
  <advance width="1171"/>
  <unicode hex="0024"/>
  <outline>
    <contour>
      <point x="518" y="-119" type="line"/>
      <point x="649" y="-119" type="line"/>
      <point x="649" y="109" type="line"/>
      <point x="909" y="135"/>
      <point x="1057" y="260"/>
      <point x="1057" y="451" type="curve" smooth="yes"/>
      <point x="1057" y="655"/>
      <point x="920" y="731"/>
      <point x="649" y="809" type="curve"/>
      <point x="649" y="1221" type="line"/>
      <point x="758" y="1212"/>
      <point x="866" y="1184"/>
      <point x="954" y="1149" type="curve"/>
      <point x="1010" y="1300" type="line"/>
      <point x="911" y="1341"/>
      <point x="795" y="1372"/>
      <point x="649" y="1376" type="curve"/>
      <point x="649" y="1554" type="line"/>
      <point x="518" y="1554" type="line"/>
      <point x="518" y="1374" type="line"/>
      <point x="279" y="1360"/>
      <point x="127" y="1241"/>
      <point x="127" y="1040" type="curve" smooth="yes"/>
      <point x="127" y="846"/>
      <point x="248" y="745"/>
      <point x="518" y="672" type="curve"/>
      <point x="518" y="258" type="line"/>
      <point x="379" y="260"/>
      <point x="219" y="299"/>
      <point x="127" y="342" type="curve"/>
      <point x="127" y="168" type="line"/>
      <point x="215" y="127"/>
      <point x="367" y="102"/>
      <point x="518" y="100" type="curve"/>
    </contour>
    <contour>
      <point x="649" y="268" type="curve"/>
      <point x="649" y="629" type="line"/>
      <point x="827" y="584"/>
      <point x="881" y="541"/>
      <point x="881" y="438" type="curve" smooth="yes"/>
      <point x="881" y="346"/>
      <point x="809" y="285"/>
    </contour>
    <contour>
      <point x="518" y="854" type="line"/>
      <point x="354" y="895"/>
      <point x="303" y="946"/>
      <point x="303" y="1055" type="curve" smooth="yes"/>
      <point x="303" y="1145"/>
      <point x="371" y="1206"/>
      <point x="518" y="1217" type="curve"/>
    </contour>
  </outline>
</glyph>
<glyph name="colon" format="2">
  <advance width="549"/>
  <unicode hex="003A"/>
  <outline>
    <contour>
      <point x="147" y="111" type="curve" smooth="yes"/>
      <point x="147" y="12"/>
      <point x="203" y="-29"/>
      <point x="272" y="-29" type="curve" smooth="yes"/>
      <point x="342" y="-29"/>
      <point x="401" y="12"/>
      <point x="401" y="111" type="curve" smooth="yes"/>
      <point x="401" y="211"/>
      <point x="342" y="248"/>
      <point x="272" y="248" type="curve" smooth="yes"/>
      <point x="203" y="248"/>
      <point x="147" y="211"/>
    </contour>
    <contour>
      <point x="147" y="987" type="curve" smooth="yes"/>
      <point x="147" y="889"/>
      <point x="203" y="848"/>
      <point x="272" y="848" type="curve" smooth="yes"/>
      <point x="342" y="848"/>
      <point x="401" y="889"/>
      <point x="401" y="987" type="curve" smooth="yes"/>
      <point x="401" y="1090"/>
      <point x="342" y="1126"/>
      <point x="272" y="1126" type="curve" smooth="yes"/>
      <point x="203" y="1126"/>
      <point x="147" y="1090"/>
    </contour>
  </outline>
</glyph>
<glyph name="less" format="2">
  <advance width="1171"/>
  <unicode hex="003C"/>
  <outline>
    <contour>
      <point x="1067" y="238" type="line"/>
      <point x="1067" y="397" type="line"/>
      <point x="295" y="721" type="line"/>
      <point x="1067" y="1085" type="line"/>
      <point x="1067" y="1245" type="line"/>
      <point x="102" y="764" type="line"/>
      <point x="102" y="662" type="line"/>
    </contour>
  </outline>
</glyph>
<glyph name="equal" format="2">
  <advance width="1171"/>
  <unicode hex="003D"/>
  <outline>
    <contour>
      <point x="115" y="852" type="line"/>
      <point x="1053" y="852" type="line"/>
      <point x="1053" y="997" type="line"/>
      <point x="115" y="997" type="line"/>
    </contour>
    <contour>
      <point x="115" y="444" type="line"/>
      <point x="1053" y="444" type="line"/>
      <point x="1053" y="590" type="line"/>
      <point x="115" y="590" type="line"/>
    </contour>
  </outline>
</glyph>
<glyph name="at" format="2">
  <advance width="1841"/>
  <unicode hex="0040"/>
  <outline>
    <contour>
      <point x="1722" y="731" type="curve" smooth="yes"/>
      <point x="1722" y="1184"/>
      <point x="1413" y="1462"/>
      <point x="987" y="1462" type="curve" smooth="yes"/>
      <point x="446" y="1462"/>
      <point x="119" y="1083"/>
      <point x="119" y="573" type="curve" smooth="yes"/>
      <point x="119" y="98"/>
      <point x="403" y="-182"/>
      <point x="887" y="-182" type="curve" smooth="yes"/>
      <point x="1063" y="-182"/>
      <point x="1210" y="-147"/>
      <point x="1327" y="-98" type="curve"/>
      <point x="1327" y="41" type="line"/>
      <point x="1210" y="-4"/>
      <point x="1053" y="-47"/>
      <point x="887" y="-47" type="curve" smooth="yes"/>
      <point x="485" y="-47"/>
      <point x="266" y="176"/>
      <point x="266" y="580" type="curve" smooth="yes"/>
      <point x="266" y="1014"/>
      <point x="520" y="1327"/>
      <point x="987" y="1327" type="curve" smooth="yes"/>
      <point x="1327" y="1327"/>
      <point x="1579" y="1112"/>
      <point x="1579" y="733" type="curve" smooth="yes"/>
      <point x="1579" y="522"/>
      <point x="1507" y="350"/>
      <point x="1380" y="350" type="curve" smooth="yes"/>
      <point x="1313" y="350"/>
      <point x="1253" y="383"/>
      <point x="1253" y="526" type="curve" smooth="yes"/>
      <point x="1253" y="535"/>
      <point x="1253" y="551"/>
      <point x="1255" y="600" type="curve" smooth="yes"/>
      <point x="1276" y="1016" type="line"/>
      <point x="1210" y="1040"/>
      <point x="1083" y="1065"/>
      <point x="963" y="1065" type="curve" smooth="yes"/>
      <point x="696" y="1065"/>
      <point x="528" y="872"/>
      <point x="528" y="604" type="curve" smooth="yes"/>
      <point x="528" y="375"/>
      <point x="645" y="223"/>
      <point x="854" y="223" type="curve" smooth="yes"/>
      <point x="999" y="223"/>
      <point x="1094" y="301"/>
      <point x="1143" y="401" type="curve"/>
      <point x="1153" y="401" type="line"/>
      <point x="1169" y="307"/>
      <point x="1243" y="223"/>
      <point x="1368" y="223" type="curve" smooth="yes"/>
      <point x="1606" y="223"/>
      <point x="1722" y="481"/>
    </contour>
    <contour>
      <point x="688" y="600" type="curve" smooth="yes"/>
      <point x="688" y="768"/>
      <point x="762" y="936"/>
      <point x="965" y="936" type="curve" smooth="yes"/>
      <point x="1022" y="936"/>
      <point x="1079" y="926"/>
      <point x="1116" y="915" type="curve"/>
      <point x="1104" y="659" type="line" smooth="yes"/>
      <point x="1094" y="477"/>
      <point x="1032" y="350"/>
      <point x="881" y="350" type="curve" smooth="yes"/>
      <point x="762" y="350"/>
      <point x="688" y="424"/>
    </contour>
  </outline>
</glyph>
<glyph name="F" format="2">
  <advance width="1063"/>
  <unicode hex="0046"/>
  <anchor x="532" y="0" name="bottom"/>
  <anchor x="610" y="1462" name="top"/>
  <anchor x="1022" y="1462" name="topright"/>
  <outline>
    <contour>
      <point x="383" y="0" type="line"/>
      <point x="383" y="621" type="line"/>
      <point x="977" y="621" type="line"/>
      <point x="977" y="782" type="line"/>
      <point x="383" y="782" type="line"/>
      <point x="383" y="1300" type="line"/>
      <point x="1016" y="1300" type="line"/>
      <point x="1016" y="1462" type="line"/>
      <point x="199" y="1462" type="line"/>
      <point x="199" y="0" type="line"/>
    </contour>
  </outline>
</glyph>
<glyph name="X" format="2">
  <advance width="1200"/>
  <unicode hex="0058"/>
  <anchor x="600" y="0" name="bottom"/>
  <anchor x="598" y="1462" name="top"/>
  <anchor x="1159" y="1462" name="topright"/>
  <outline>
    <contour>
      <point x="1192" y="0" type="line"/>
      <point x="705" y="766" type="line"/>
      <point x="1157" y="1462" type="line"/>
      <point x="963" y="1462" type="line"/>
      <point x="602" y="889" type="line"/>
      <point x="244" y="1462" type="line"/>
      <point x="39" y="1462" type="line"/>
      <point x="494" y="762" type="line"/>
      <point x="8" y="0" type="line"/>
      <point x="203" y="0" type="line"/>
      <point x="596" y="635" type="line"/>
      <point x="983" y="0" type="line"/>
    </contour>
  </outline>
</glyph>
<glyph name="micro" format="2">
  <advance width="1276"/>
  <unicode hex="00B5"/>
  <outline>
    <contour>
      <point x="1102" y="1098" type="line"/>
      <point x="922" y="1098" type="line"/>
      <point x="922" y="526" type="line" smooth="yes"/>
      <point x="922" y="270"/>
      <point x="844" y="129"/>
      <point x="600" y="129" type="curve" smooth="yes"/>
      <point x="436" y="129"/>
      <point x="354" y="219"/>
      <point x="354" y="389" type="curve" smooth="yes"/>
      <point x="354" y="1098" type="line"/>
      <point x="174" y="1098" type="line"/>
      <point x="174" y="-492" type="line"/>
      <point x="354" y="-492" type="line"/>
      <point x="354" y="-172" type="line" smooth="yes"/>
      <point x="354" y="-61"/>
      <point x="350" y="23"/>
      <point x="344" y="72" type="curve"/>
      <point x="352" y="72" type="line"/>
      <point x="406" y="16"/>
      <point x="481" y="-20"/>
      <point x="588" y="-20" type="curve" smooth="yes"/>
      <point x="741" y="-20"/>
      <point x="848" y="39"/>
      <point x="918" y="147" type="curve"/>
      <point x="928" y="147" type="line"/>
      <point x="956" y="0" type="line"/>
      <point x="1102" y="0" type="line"/>
    </contour>
  </outline>
</glyph>
<glyph name="onesuperior" format="2">
  <advance width="717"/>
  <unicode hex="00B9"/>
  <outline>
    <contour>
      <point x="492" y="1729" type="line"/>
      <point x="342" y="1729" type="line"/>
      <point x="76" y="1540" type="line"/>
      <point x="147" y="1440" type="line"/>
      <point x="258" y="1520" type="line" smooth="yes"/>
      <point x="293" y="1544"/>
      <point x="328" y="1575"/>
      <point x="354" y="1599" type="curve"/>
      <point x="350" y="1542"/>
      <point x="346" y="1487"/>
      <point x="346" y="1417" type="curve" smooth="yes"/>
      <point x="346" y="852" type="line"/>
      <point x="492" y="852" type="line"/>
    </contour>
  </outline>
</glyph>
<glyph name="threequarters" format="2">
  <advance width="1599"/>
  <unicode hex="00BE"/>
  <outline>
    <contour>
      <point x="348" y="0" type="line"/>
      <point x="502" y="0" type="line"/>
      <point x="1395" y="1462" type="line"/>
      <point x="1241" y="1462" type="line"/>
    </contour>
    <contour>
      <point x="299" y="569" type="curve" smooth="yes"/>
      <point x="541" y="569"/>
      <point x="653" y="680"/>
      <point x="653" y="838" type="curve" smooth="yes"/>
      <point x="653" y="948"/>
      <point x="584" y="1020"/>
      <point x="477" y="1040" type="curve"/>
      <point x="477" y="1047" type="line"/>
      <point x="559" y="1073"/>
      <point x="627" y="1145"/>
      <point x="627" y="1255" type="curve" smooth="yes"/>
      <point x="627" y="1386"/>
      <point x="528" y="1481"/>
      <point x="334" y="1481" type="curve" smooth="yes"/>
      <point x="207" y="1481"/>
      <point x="119" y="1442"/>
      <point x="35" y="1380" type="curve"/>
      <point x="109" y="1286" type="line"/>
      <point x="182" y="1333"/>
      <point x="252" y="1364"/>
      <point x="336" y="1364" type="curve" smooth="yes"/>
      <point x="416" y="1364"/>
      <point x="479" y="1325"/>
      <point x="479" y="1239" type="curve" smooth="yes"/>
      <point x="479" y="1153"/>
      <point x="418" y="1096"/>
      <point x="281" y="1096" type="curve" smooth="yes"/>
      <point x="164" y="1096" type="line"/>
      <point x="164" y="983" type="line"/>
      <point x="281" y="983" type="line" smooth="yes"/>
      <point x="422" y="983"/>
      <point x="506" y="940"/>
      <point x="506" y="842" type="curve" smooth="yes"/>
      <point x="506" y="745"/>
      <point x="442" y="686"/>
      <point x="301" y="686" type="curve" smooth="yes"/>
      <point x="219" y="686"/>
      <point x="123" y="711"/>
      <point x="31" y="756" type="curve"/>
      <point x="31" y="627" type="line"/>
      <point x="113" y="586"/>
      <point x="199" y="569"/>
    </contour>
    <contour>
      <point x="1303" y="0" type="line"/>
      <point x="1456" y="0" type="line"/>
      <point x="1456" y="197" type="line"/>
      <point x="1581" y="197" type="line"/>
      <point x="1581" y="319" type="line"/>
      <point x="1456" y="319" type="line"/>
      <point x="1456" y="883" type="line"/>
      <point x="1307" y="883" type="line"/>
      <point x="903" y="303" type="line"/>
      <point x="903" y="197" type="line"/>
      <point x="1303" y="197" type="line"/>
    </contour>
    <contour>
      <point x="1047" y="319" type="line"/>
      <point x="1210" y="559" type="line" smooth="yes"/>
      <point x="1241" y="604"/>
      <point x="1294" y="686"/>
      <point x="1309" y="717" type="curve"/>
      <point x="1305" y="651"/>
      <point x="1303" y="567"/>
      <point x="1303" y="510" type="curve" smooth="yes"/>
      <point x="1303" y="319" type="line"/>
    </contour>
  </outline>
</glyph>
<glyph name="uni01B1" format="2">
  <advance width="1602"/>
  <unicode hex="01B1"/>
  <anchor x="801" y="0" name="bottom"/>
  <anchor x="801" y="1462" name="top"/>
  <outline>
    <contour>
      <point x="801" y="139" type="curve" smooth="yes"/>
      <point x="471" y="139"/>
      <point x="322" y="330"/>
      <point x="322" y="641" type="curve" smooth="yes"/>
      <point x="322" y="911"/>
      <point x="412" y="1135"/>
      <point x="666" y="1315" type="curve"/>
      <point x="666" y="1462" type="line"/>
      <point x="76" y="1462" type="line"/>
      <point x="76" y="1300" type="line"/>
      <point x="438" y="1300" type="line"/>
      <point x="264" y="1167"/>
      <point x="129" y="940"/>
      <point x="129" y="633" type="curve" smooth="yes"/>
      <point x="129" y="231"/>
      <point x="367" y="-23"/>
      <point x="801" y="-23" type="curve" smooth="yes"/>
      <point x="1229" y="-23"/>
      <point x="1470" y="233"/>
      <point x="1470" y="635" type="curve" smooth="yes"/>
      <point x="1470" y="940"/>
      <point x="1333" y="1167"/>
      <point x="1159" y="1300" type="curve"/>
      <point x="1524" y="1300" type="line"/>
      <point x="1524" y="1462" type="line"/>
      <point x="934" y="1462" type="line"/>
      <point x="934" y="1315" type="line"/>
      <point x="1188" y="1133"/>
      <point x="1276" y="913"/>
      <point x="1276" y="641" type="curve" smooth="yes"/>
      <point x="1276" y="330"/>
      <point x="1128" y="139"/>
    </contour>
  </outline>
</glyph>
<glyph name="uni01B3" format="2">
  <advance width="1180"/>
  <unicode hex="01B3"/>
  <anchor x="580" y="0" name="bottom"/>
  <anchor x="580" y="1462" name="top"/>
  <outline>
    <contour>
      <point x="487" y="0" type="line"/>
      <point x="672" y="0" type="line"/>
      <point x="672" y="567" type="line"/>
      <point x="1004" y="1257" type="line" smooth="yes"/>
      <point x="1028" y="1307"/>
      <point x="1055" y="1329"/>
      <point x="1090" y="1329" type="curve" smooth="yes"/>
      <point x="1118" y="1329"/>
      <point x="1147" y="1323"/>
      <point x="1169" y="1313" type="curve"/>
      <point x="1169" y="1462" type="line"/>
      <point x="1143" y="1473"/>
      <point x="1102" y="1485"/>
      <point x="1047" y="1485" type="curve" smooth="yes"/>
      <point x="958" y="1485"/>
      <point x="897" y="1454"/>
      <point x="842" y="1331" type="curve" smooth="yes"/>
      <point x="580" y="743" type="line"/>
      <point x="201" y="1462" type="line"/>
      <point x="0" y="1462" type="line"/>
      <point x="487" y="559" type="line"/>
    </contour>
  </outline>
</glyph>
<glyph name="uni01B5" format="2">
  <advance width="1171"/>
  <unicode hex="01B5"/>
  <anchor x="586" y="0" name="bottom"/>
  <anchor x="586" y="1462" name="top"/>
  <outline>
    <contour>
      <point x="162" y="834" type="line"/>
      <point x="162" y="688" type="line"/>
      <point x="442" y="688" type="line"/>
      <point x="78" y="139" type="line"/>
      <point x="78" y="0" type="line"/>
      <point x="1092" y="0" type="line"/>
      <point x="1092" y="164" type="line"/>
      <point x="301" y="164" type="line"/>
      <point x="649" y="688" type="line"/>
      <point x="995" y="688" type="line"/>
      <point x="995" y="834" type="line"/>
      <point x="745" y="834" type="line"/>
      <point x="1071" y="1323" type="line"/>
      <point x="1071" y="1462" type="line"/>
      <point x="102" y="1462" type="line"/>
      <point x="102" y="1298" type="line"/>
      <point x="848" y="1298" type="line"/>
      <point x="539" y="834" type="line"/>
    </contour>
  </outline>
</glyph>
<glyph name="uni01E5" format="2">
  <advance width="1260"/>
  <unicode hex="01E5"/>
  <anchor x="631" y="-492" name="bottom"/>
  <anchor x="631" y="1098" name="top"/>
  <outline>
    <contour>
      <point x="563" y="1118" type="curve" smooth="yes"/>
      <point x="281" y="1118"/>
      <point x="113" y="907"/>
      <point x="113" y="578" type="curve" smooth="yes"/>
      <point x="113" y="236"/>
      <point x="281" y="37"/>
      <point x="565" y="37" type="curve" smooth="yes"/>
      <point x="715" y="37"/>
      <point x="829" y="90"/>
      <point x="905" y="203" type="curve"/>
      <point x="913" y="203" type="line"/>
      <point x="909" y="172"/>
      <point x="907" y="113"/>
      <point x="907" y="68" type="curve" smooth="yes"/>
      <point x="907" y="-66" type="line"/>
      <point x="539" y="-66" type="line"/>
      <point x="539" y="-211" type="line"/>
      <point x="881" y="-211" type="line"/>
      <point x="848" y="-295"/>
      <point x="758" y="-342"/>
      <point x="604" y="-342" type="curve" smooth="yes"/>
      <point x="446" y="-342"/>
      <point x="303" y="-311"/>
      <point x="199" y="-256" type="curve"/>
      <point x="199" y="-422" type="line"/>
      <point x="303" y="-469"/>
      <point x="434" y="-492"/>
      <point x="594" y="-492" type="curve" smooth="yes"/>
      <point x="879" y="-492"/>
      <point x="1030" y="-377"/>
      <point x="1069" y="-211" type="curve"/>
      <point x="1198" y="-211" type="line"/>
      <point x="1198" y="-66" type="line"/>
      <point x="1085" y="-66" type="line"/>
      <point x="1085" y="1098" type="line"/>
      <point x="942" y="1098" type="line"/>
      <point x="918" y="952" type="line"/>
      <point x="907" y="952" type="line"/>
      <point x="825" y="1065"/>
      <point x="707" y="1118"/>
    </contour>
    <contour>
      <point x="588" y="967" type="curve" smooth="yes"/>
      <point x="809" y="967"/>
      <point x="909" y="846"/>
      <point x="909" y="567" type="curve" smooth="yes"/>
      <point x="909" y="535" type="line" smooth="yes"/>
      <point x="909" y="287"/>
      <point x="813" y="184"/>
      <point x="592" y="184" type="curve" smooth="yes"/>
      <point x="399" y="184"/>
      <point x="299" y="322"/>
      <point x="299" y="575" type="curve" smooth="yes"/>
      <point x="299" y="825"/>
      <point x="403" y="967"/>
    </contour>
  </outline>
</glyph>
<glyph name="uni024D" format="2">
  <advance width="846"/>
  <unicode hex="024D"/>
  <anchor x="258" y="0" name="bottom"/>
  <anchor x="492" y="1098" name="top"/>
  <outline>
    <contour>
      <point x="612" y="653" type="line"/>
      <point x="20" y="653" type="line"/>
      <point x="20" y="508" type="line"/>
      <point x="612" y="508" type="line"/>
    </contour>
    <component base="r"/>
  </outline>
</glyph>
<glyph name="uni0251" format="2">
  <advance width="1260"/>
  <unicode hex="0251"/>
  <anchor x="631" y="0" name="bottom"/>
  <anchor x="631" y="1098" name="top"/>
  <outline>
    <contour>
      <point x="563" y="-20" type="curve" smooth="yes"/>
      <point x="735" y="-20"/>
      <point x="840" y="53"/>
      <point x="905" y="147" type="curve"/>
      <point x="913" y="147" type="line"/>
      <point x="944" y="20"/>
      <point x="1012" y="-20"/>
      <point x="1116" y="-20" type="curve" smooth="yes"/>
      <point x="1161" y="-20"/>
      <point x="1210" y="-6"/>
      <point x="1231" y="6" type="curve"/>
      <point x="1231" y="137" type="line"/>
      <point x="1219" y="133"/>
      <point x="1190" y="127"/>
      <point x="1169" y="127" type="curve" smooth="yes"/>
      <point x="1122" y="127"/>
      <point x="1085" y="158"/>
      <point x="1085" y="242" type="curve" smooth="yes"/>
      <point x="1085" y="1098" type="line"/>
      <point x="942" y="1098" type="line"/>
      <point x="913" y="956" type="line"/>
      <point x="905" y="956" type="line"/>
      <point x="838" y="1047"/>
      <point x="735" y="1118"/>
      <point x="565" y="1118" type="curve" smooth="yes"/>
      <point x="293" y="1118"/>
      <point x="113" y="924"/>
      <point x="113" y="547" type="curve" smooth="yes"/>
      <point x="113" y="170"/>
      <point x="291" y="-20"/>
    </contour>
    <contour>
      <point x="592" y="129" type="curve" smooth="yes"/>
      <point x="395" y="129"/>
      <point x="299" y="281"/>
      <point x="299" y="543" type="curve" smooth="yes"/>
      <point x="299" y="803"/>
      <point x="395" y="969"/>
      <point x="590" y="969" type="curve" smooth="yes"/>
      <point x="834" y="969"/>
      <point x="907" y="817"/>
      <point x="907" y="545" type="curve" smooth="yes"/>
      <point x="907" y="512" type="line" smooth="yes"/>
      <point x="907" y="256"/>
      <point x="823" y="129"/>
    </contour>
  </outline>
</glyph>
<glyph name="uni026E" format="2">
  <advance width="1346"/>
  <unicode hex="026E"/>
  <anchor x="674" y="-492" name="bottom"/>
  <anchor x="674" y="1556" name="top"/>
  <outline>
    <contour>
      <point x="733" y="-492" type="curve" smooth="yes"/>
      <point x="1063" y="-492"/>
      <point x="1276" y="-289"/>
      <point x="1276" y="2" type="curve" smooth="yes"/>
      <point x="1276" y="299"/>
      <point x="1079" y="449"/>
      <point x="772" y="467" type="curve"/>
      <point x="1221" y="967" type="line"/>
      <point x="1221" y="1098" type="line"/>
      <point x="354" y="1098" type="line"/>
      <point x="354" y="1556" type="line"/>
      <point x="174" y="1556" type="line"/>
      <point x="174" y="0" type="line"/>
      <point x="354" y="0" type="line"/>
      <point x="354" y="946" type="line"/>
      <point x="1010" y="946" type="line"/>
      <point x="561" y="449" type="line"/>
      <point x="561" y="324" type="line"/>
      <point x="682" y="324" type="line" smooth="yes"/>
      <point x="930" y="324"/>
      <point x="1096" y="227"/>
      <point x="1096" y="-2" type="curve" smooth="yes"/>
      <point x="1096" y="-213"/>
      <point x="952" y="-342"/>
      <point x="741" y="-342" type="curve" smooth="yes"/>
      <point x="582" y="-342"/>
      <point x="444" y="-299"/>
      <point x="354" y="-256" type="curve"/>
      <point x="354" y="-420" type="line"/>
      <point x="442" y="-465"/>
      <point x="571" y="-492"/>
    </contour>
  </outline>
</glyph>
<glyph name="uni027B" format="2">
  <advance width="846"/>
  <unicode hex="027B"/>
  <anchor x="424" y="-492" name="bottom"/>
  <anchor x="424" y="1098" name="top"/>
  <outline>
    <contour>
      <point x="748" y="-492" type="curve" smooth="yes"/>
      <point x="821" y="-492"/>
      <point x="879" y="-477"/>
      <point x="905" y="-459" type="curve"/>
      <point x="905" y="-322" type="line"/>
      <point x="885" y="-332"/>
      <point x="840" y="-344"/>
      <point x="788" y="-344" type="curve" smooth="yes"/>
      <point x="713" y="-344"/>
      <point x="672" y="-309"/>
      <point x="672" y="-147" type="curve" smooth="yes"/>
      <point x="672" y="1098" type="line"/>
      <point x="492" y="1098" type="line"/>
      <point x="492" y="512" type="line" smooth="yes"/>
      <point x="492" y="291"/>
      <point x="342" y="143"/>
      <point x="172" y="143" type="curve" smooth="yes"/>
      <point x="135" y="143"/>
      <point x="88" y="150"/>
      <point x="53" y="158" type="curve"/>
      <point x="31" y="-8" type="line"/>
      <point x="68" y="-16"/>
      <point x="119" y="-20"/>
      <point x="160" y="-20" type="curve" smooth="yes"/>
      <point x="313" y="-20"/>
      <point x="426" y="80"/>
      <point x="496" y="201" type="curve"/>
      <point x="504" y="201" type="line"/>
      <point x="500" y="166"/>
      <point x="492" y="80"/>
      <point x="492" y="39" type="curve" smooth="yes"/>
      <point x="492" y="-150" type="line" smooth="yes"/>
      <point x="492" y="-418"/>
      <point x="610" y="-492"/>
    </contour>
  </outline>
</glyph>
<glyph name="cstretched" format="2">
  <advance width="961"/>
  <unicode hex="0297"/>
  <anchor x="481" y="-489" name="bottom"/>
  <anchor x="481" y="1098" name="top"/>
  <outline>
    <contour>
      <point x="614" y="-489" type="curve" smooth="yes"/>
      <point x="739" y="-489"/>
      <point x="823" y="-469"/>
      <point x="897" y="-430" type="curve"/>
      <point x="897" y="-270" type="line"/>
      <point x="821" y="-305"/>
      <point x="731" y="-334"/>
      <point x="612" y="-334" type="curve" smooth="yes"/>
      <point x="410" y="-334"/>
      <point x="299" y="-170"/>
      <point x="299" y="309" type="curve" smooth="yes"/>
      <point x="299" y="782"/>
      <point x="418" y="961"/>
      <point x="623" y="961" type="curve" smooth="yes"/>
      <point x="698" y="961"/>
      <point x="795" y="934"/>
      <point x="860" y="909" type="curve"/>
      <point x="915" y="1059" type="line"/>
      <point x="850" y="1092"/>
      <point x="737" y="1118"/>
      <point x="627" y="1118" type="curve" smooth="yes"/>
      <point x="342" y="1118"/>
      <point x="113" y="926"/>
      <point x="113" y="305" type="curve" smooth="yes"/>
      <point x="113" y="-240"/>
      <point x="276" y="-489"/>
    </contour>
  </outline>
</glyph>
<glyph name="qhook" format="2">
  <advance width="1260"/>
  <unicode hex="02A0"/>
  <anchor x="631" y="-492" name="bottom"/>
  <anchor x="631" y="1567" name="top"/>
  <outline>
    <contour>
      <point x="905" y="-492" type="line"/>
      <point x="1085" y="-492" type="line"/>
      <point x="1085" y="1223" type="line" smooth="yes"/>
      <point x="1085" y="1384"/>
      <point x="1124" y="1419"/>
      <point x="1202" y="1419" type="curve" smooth="yes"/>
      <point x="1253" y="1419"/>
      <point x="1298" y="1407"/>
      <point x="1319" y="1397" type="curve"/>
      <point x="1319" y="1534" type="line"/>
      <point x="1292" y="1552"/>
      <point x="1237" y="1567"/>
      <point x="1163" y="1567" type="curve" smooth="yes"/>
      <point x="1024" y="1567"/>
      <point x="905" y="1493"/>
      <point x="905" y="1225" type="curve" smooth="yes"/>
      <point x="905" y="1118" type="line"/>
      <point x="905" y="1077"/>
      <point x="913" y="991"/>
      <point x="918" y="956" type="curve"/>
      <point x="905" y="956" type="line"/>
      <point x="838" y="1047"/>
      <point x="735" y="1118"/>
      <point x="565" y="1118" type="curve" smooth="yes"/>
      <point x="293" y="1118"/>
      <point x="113" y="924"/>
      <point x="113" y="547" type="curve" smooth="yes"/>
      <point x="113" y="170"/>
      <point x="293" y="-20"/>
      <point x="565" y="-20" type="curve" smooth="yes"/>
      <point x="735" y="-20"/>
      <point x="838" y="51"/>
      <point x="905" y="141" type="curve"/>
      <point x="918" y="141" type="line"/>
      <point x="913" y="106"/>
      <point x="905" y="20"/>
      <point x="905" y="-20" type="curve" smooth="yes"/>
    </contour>
    <contour>
      <point x="592" y="129" type="curve" smooth="yes"/>
      <point x="395" y="129"/>
      <point x="299" y="281"/>
      <point x="299" y="543" type="curve" smooth="yes"/>
      <point x="299" y="803"/>
      <point x="395" y="969"/>
      <point x="590" y="969" type="curve" smooth="yes"/>
      <point x="834" y="969"/>
      <point x="907" y="817"/>
      <point x="907" y="545" type="curve" smooth="yes"/>
      <point x="907" y="512" type="line" smooth="yes"/>
      <point x="907" y="256"/>
      <point x="823" y="129"/>
    </contour>
  </outline>
</glyph>
<glyph name="tcligcurl" format="2">
  <advance width="1765"/>
  <unicode hex="02A8"/>
  <anchor x="1319" y="-20" name="bottom"/>
  <anchor x="1319" y="1350" name="top"/>
  <outline>
    <contour>
      <point x="510" y="-20" type="curve" smooth="yes"/>
      <point x="680" y="-20"/>
      <point x="807" y="57"/>
      <point x="922" y="143" type="curve"/>
      <point x="1012" y="31"/>
      <point x="1151" y="-20"/>
      <point x="1319" y="-20" type="curve" smooth="yes"/>
      <point x="1491" y="-20"/>
      <point x="1679" y="63"/>
      <point x="1679" y="270" type="curve" smooth="yes"/>
      <point x="1679" y="418"/>
      <point x="1563" y="520"/>
      <point x="1366" y="520" type="curve" smooth="yes"/>
      <point x="1214" y="520"/>
      <point x="1104" y="463"/>
      <point x="1006" y="391" type="curve"/>
      <point x="997" y="438"/>
      <point x="991" y="487"/>
      <point x="991" y="545" type="curve" smooth="yes"/>
      <point x="991" y="819"/>
      <point x="1096" y="961"/>
      <point x="1315" y="961" type="curve" smooth="yes"/>
      <point x="1391" y="961"/>
      <point x="1487" y="934"/>
      <point x="1552" y="909" type="curve"/>
      <point x="1608" y="1059" type="line"/>
      <point x="1542" y="1092"/>
      <point x="1430" y="1118"/>
      <point x="1319" y="1118" type="curve" smooth="yes"/>
      <point x="1024" y="1118"/>
      <point x="805" y="948"/>
      <point x="805" y="543" type="curve" smooth="yes"/>
      <point x="805" y="434"/>
      <point x="819" y="344"/>
      <point x="850" y="268" type="curve"/>
      <point x="752" y="193"/>
      <point x="651" y="127"/>
      <point x="518" y="127" type="curve" smooth="yes"/>
      <point x="440" y="127"/>
      <point x="369" y="190"/>
      <point x="369" y="324" type="curve" smooth="yes"/>
      <point x="369" y="958" type="line"/>
      <point x="686" y="958" type="line"/>
      <point x="686" y="1098" type="line"/>
      <point x="369" y="1098" type="line"/>
      <point x="369" y="1350" type="line"/>
      <point x="262" y="1350" type="line"/>
      <point x="190" y="1116" type="line"/>
      <point x="33" y="1044" type="line"/>
      <point x="33" y="958" type="line"/>
      <point x="188" y="958" type="line"/>
      <point x="188" y="319" type="line" smooth="yes"/>
      <point x="188" y="53"/>
      <point x="338" y="-20"/>
    </contour>
    <contour>
      <point x="1317" y="129" type="curve" smooth="yes"/>
      <point x="1200" y="129"/>
      <point x="1114" y="172"/>
      <point x="1061" y="252" type="curve"/>
      <point x="1151" y="317"/>
      <point x="1243" y="371"/>
      <point x="1354" y="371" type="curve" smooth="yes"/>
      <point x="1468" y="371"/>
      <point x="1509" y="317"/>
      <point x="1509" y="266" type="curve" smooth="yes"/>
      <point x="1509" y="182"/>
      <point x="1427" y="129"/>
    </contour>
  </outline>
</glyph>
<glyph name="uni02A9" format="2">
  <advance width="1765"/>
  <unicode hex="02A9"/>
  <anchor x="1159" y="-492" name="bottom"/>
  <anchor x="1178" y="1567" name="top"/>
  <outline>
    <contour>
      <point x="1305" y="-492" type="curve" smooth="yes"/>
      <point x="1507" y="-492"/>
      <point x="1599" y="-369"/>
      <point x="1599" y="-164" type="curve" smooth="yes"/>
      <point x="1599" y="717" type="line" smooth="yes"/>
      <point x="1599" y="997"/>
      <point x="1466" y="1118"/>
      <point x="1198" y="1118" type="curve" smooth="yes"/>
      <point x="1057" y="1118"/>
      <point x="930" y="1063"/>
      <point x="858" y="948" type="curve"/>
      <point x="848" y="948" type="line"/>
      <point x="819" y="1098" type="line"/>
      <point x="403" y="1098" type="line"/>
      <point x="403" y="1169" type="line" smooth="yes"/>
      <point x="403" y="1341"/>
      <point x="461" y="1419"/>
      <point x="582" y="1419" type="curve" smooth="yes"/>
      <point x="641" y="1419"/>
      <point x="700" y="1403"/>
      <point x="745" y="1389" type="curve"/>
      <point x="793" y="1530" type="line"/>
      <point x="739" y="1548"/>
      <point x="666" y="1567"/>
      <point x="580" y="1567" type="curve" smooth="yes"/>
      <point x="354" y="1567"/>
      <point x="223" y="1450"/>
      <point x="223" y="1167" type="curve" smooth="yes"/>
      <point x="223" y="1104" type="line"/>
      <point x="31" y="1042" type="line"/>
      <point x="31" y="958" type="line"/>
      <point x="223" y="958" type="line"/>
      <point x="223" y="0" type="line"/>
      <point x="403" y="0" type="line"/>
      <point x="403" y="958" type="line"/>
      <point x="674" y="958" type="line"/>
      <point x="674" y="0" type="line"/>
      <point x="854" y="0" type="line"/>
      <point x="854" y="571" type="line" smooth="yes"/>
      <point x="854" y="827"/>
      <point x="932" y="967"/>
      <point x="1176" y="967" type="curve" smooth="yes"/>
      <point x="1341" y="967"/>
      <point x="1419" y="881"/>
      <point x="1419" y="705" type="curve" smooth="yes"/>
      <point x="1419" y="-170" type="line" smooth="yes"/>
      <point x="1419" y="-303"/>
      <point x="1360" y="-342"/>
      <point x="1282" y="-342" type="curve" smooth="yes"/>
      <point x="1233" y="-342"/>
      <point x="1196" y="-334"/>
      <point x="1159" y="-322" type="curve"/>
      <point x="1159" y="-467" type="line"/>
      <point x="1194" y="-481"/>
      <point x="1239" y="-492"/>
    </contour>
  </outline>
</glyph>
<glyph name="breveinvertedcomb" format="2">
  <unicode hex="0311"/>
  <anchor x="0" y="1098" name="_top"/>
  <anchor x="4" y="1516" name="top"/>
  <outline>
    <contour>
      <point x="4" y="1516" type="curve" smooth="yes"/>
      <point x="-193" y="1516"/>
      <point x="-305" y="1405"/>
      <point x="-319" y="1241" type="curve"/>
      <point x="-207" y="1241" type="line"/>
      <point x="-193" y="1348"/>
      <point x="-106" y="1370"/>
      <point x="0" y="1370" type="curve" smooth="yes"/>
      <point x="125" y="1370"/>
      <point x="195" y="1354"/>
      <point x="207" y="1241" type="curve"/>
      <point x="317" y="1241" type="line"/>
      <point x="307" y="1409"/>
      <point x="207" y="1516"/>
    </contour>
  </outline>
</glyph>
<glyph name="doublebrevebelowcomb" format="2">
  <unicode hex="035C"/>
  <anchor x="-512" y="0" name="_bottom"/>
  <anchor x="6" y="-471" name="bottom"/>
  <outline>
    <contour>
      <point x="8" y="-471" type="curve" smooth="yes"/>
      <point x="362" y="-471"/>
      <point x="651" y="-358"/>
      <point x="791" y="-86" type="curve"/>
      <point x="647" y="-86" type="line"/>
      <point x="535" y="-252"/>
      <point x="297" y="-324"/>
      <point x="6" y="-324" type="curve" smooth="yes"/>
      <point x="-342" y="-324"/>
      <point x="-549" y="-233"/>
      <point x="-645" y="-86" type="curve"/>
      <point x="-788" y="-86" type="line"/>
      <point x="-674" y="-340"/>
      <point x="-389" y="-471"/>
    </contour>
  </outline>
</glyph>
<glyph name="uni0375" format="2">
  <advance width="453"/>
  <unicode hex="0375"/>
  <outline>
    <contour>
      <point x="412" y="-147" type="curve"/>
      <point x="412" y="-123" type="line"/>
      <point x="293" y="-123" type="line"/>
      <point x="197" y="-197"/>
      <point x="102" y="-326"/>
      <point x="41" y="-430" type="curve"/>
      <point x="41" y="-451" type="line"/>
      <point x="258" y="-451" type="line"/>
      <point x="295" y="-356"/>
      <point x="352" y="-240"/>
    </contour>
  </outline>
</glyph>
<glyph name="Sigma" format="2">
  <advance width="1167"/>
  <unicode hex="03A3"/>
  <anchor x="584" y="0" name="bottom"/>
  <anchor x="584" y="1462" name="top"/>
  <outline>
    <contour>
      <point x="74" y="0" type="line"/>
      <point x="1118" y="0" type="line"/>
      <point x="1118" y="162" type="line"/>
      <point x="590" y="162" type="line" smooth="yes"/>
      <point x="481" y="162"/>
      <point x="379" y="160"/>
      <point x="276" y="160" type="curve"/>
      <point x="758" y="766" type="line"/>
      <point x="297" y="1300" type="line"/>
      <point x="340" y="1298"/>
      <point x="477" y="1298"/>
      <point x="537" y="1298" type="curve" smooth="yes"/>
      <point x="1059" y="1298" type="line"/>
      <point x="1059" y="1462" type="line"/>
      <point x="86" y="1462" type="line"/>
      <point x="86" y="1309" type="line"/>
      <point x="553" y="764" type="line"/>
      <point x="74" y="152" type="line"/>
    </contour>
  </outline>
</glyph>
<glyph name="beta" format="2">
  <advance width="1292"/>
  <unicode hex="03B2"/>
  <anchor x="770" y="0" name="bottom"/>
  <anchor x="664" y="1567" name="top"/>
  <anchor x="1141" y="1567" name="topright"/>
  <outline>
    <contour>
      <point x="664" y="1567" type="curve" smooth="yes"/>
      <point x="381" y="1567"/>
      <point x="174" y="1425"/>
      <point x="174" y="1096" type="curve" smooth="yes"/>
      <point x="174" y="-492" type="line"/>
      <point x="354" y="-492" type="line"/>
      <point x="354" y="49" type="line"/>
      <point x="442" y="6"/>
      <point x="541" y="-20"/>
      <point x="700" y="-20" type="curve" smooth="yes"/>
      <point x="1014" y="-20"/>
      <point x="1200" y="135"/>
      <point x="1200" y="416" type="curve" smooth="yes"/>
      <point x="1200" y="664"/>
      <point x="1071" y="795"/>
      <point x="823" y="823" type="curve"/>
      <point x="823" y="831" type="line"/>
      <point x="1024" y="864"/>
      <point x="1135" y="979"/>
      <point x="1135" y="1176" type="curve" smooth="yes"/>
      <point x="1135" y="1436"/>
      <point x="938" y="1567"/>
    </contour>
    <contour>
      <point x="659" y="1417" type="curve" smooth="yes"/>
      <point x="836" y="1417"/>
      <point x="950" y="1335"/>
      <point x="950" y="1167" type="curve" smooth="yes"/>
      <point x="950" y="1001"/>
      <point x="856" y="891"/>
      <point x="643" y="891" type="curve" smooth="yes"/>
      <point x="555" y="891" type="line"/>
      <point x="555" y="739" type="line"/>
      <point x="664" y="739" type="line" smooth="yes"/>
      <point x="877" y="739"/>
      <point x="1020" y="643"/>
      <point x="1020" y="428" type="curve" smooth="yes"/>
      <point x="1020" y="236"/>
      <point x="920" y="127"/>
      <point x="684" y="127" type="curve" smooth="yes"/>
      <point x="545" y="127"/>
      <point x="449" y="162"/>
      <point x="354" y="211" type="curve"/>
      <point x="354" y="1087" type="line" smooth="yes"/>
      <point x="354" y="1343"/>
      <point x="496" y="1417"/>
    </contour>
  </outline>
</glyph>
<glyph name="uni03D6" format="2">
  <advance width="1753"/>
  <unicode hex="03D6"/>
  <outline>
    <contour>
      <point x="1690" y="1098" type="line"/>
      <point x="166" y="1098" type="line"/>
      <point x="23" y="1026" type="line"/>
      <point x="23" y="948" type="line"/>
      <point x="303" y="948" type="line"/>
      <point x="227" y="791"/>
      <point x="176" y="616"/>
      <point x="176" y="455" type="curve" smooth="yes"/>
      <point x="176" y="135"/>
      <point x="315" y="-20"/>
      <point x="567" y="-20" type="curve" smooth="yes"/>
      <point x="717" y="-20"/>
      <point x="811" y="43"/>
      <point x="858" y="164" type="curve"/>
      <point x="866" y="164" type="line"/>
      <point x="911" y="43"/>
      <point x="1006" y="-20"/>
      <point x="1157" y="-20" type="curve" smooth="yes"/>
      <point x="1411" y="-20"/>
      <point x="1550" y="135"/>
      <point x="1550" y="455" type="curve" smooth="yes"/>
      <point x="1550" y="616"/>
      <point x="1509" y="788"/>
      <point x="1438" y="948" type="curve"/>
      <point x="1690" y="948" type="line"/>
    </contour>
    <contour>
      <point x="1262" y="948" type="line"/>
      <point x="1329" y="799"/>
      <point x="1368" y="627"/>
      <point x="1368" y="465" type="curve" smooth="yes"/>
      <point x="1368" y="213"/>
      <point x="1284" y="129"/>
      <point x="1147" y="129" type="curve" smooth="yes"/>
      <point x="1026" y="129"/>
      <point x="950" y="225"/>
      <point x="950" y="395" type="curve" smooth="yes"/>
      <point x="950" y="578" type="line"/>
      <point x="776" y="578" type="line"/>
      <point x="776" y="395" type="line" smooth="yes"/>
      <point x="776" y="242"/>
      <point x="711" y="129"/>
      <point x="580" y="129" type="curve" smooth="yes"/>
      <point x="442" y="129"/>
      <point x="356" y="211"/>
      <point x="356" y="465" type="curve" smooth="yes"/>
      <point x="356" y="627"/>
      <point x="414" y="805"/>
      <point x="479" y="948" type="curve"/>
    </contour>
  </outline>
</glyph>
<glyph name="uni03D8" format="2">
  <advance width="1563"/>
  <unicode hex="03D8"/>
  <anchor x="782" y="0" name="bottom"/>
  <anchor x="782" y="1462" name="top"/>
  <outline>
    <contour>
      <point x="784" y="1483" type="curve" smooth="yes"/>
      <point x="338" y="1483"/>
      <point x="125" y="1227"/>
      <point x="125" y="874" type="curve" smooth="yes"/>
      <point x="125" y="545"/>
      <point x="307" y="297"/>
      <point x="688" y="264" type="curve"/>
      <point x="688" y="0" type="line"/>
      <point x="872" y="0" type="line"/>
      <point x="872" y="264" type="line"/>
      <point x="1241" y="297"/>
      <point x="1438" y="541"/>
      <point x="1438" y="872" type="curve" smooth="yes"/>
      <point x="1438" y="1229"/>
      <point x="1210" y="1483"/>
    </contour>
    <contour>
      <point x="784" y="1321" type="curve" smooth="yes"/>
      <point x="1102" y="1321"/>
      <point x="1243" y="1141"/>
      <point x="1243" y="872" type="curve" smooth="yes"/>
      <point x="1243" y="604"/>
      <point x="1102" y="420"/>
      <point x="782" y="420" type="curve" smooth="yes"/>
      <point x="465" y="420"/>
      <point x="319" y="604"/>
      <point x="319" y="872" type="curve" smooth="yes"/>
      <point x="319" y="1141"/>
      <point x="465" y="1321"/>
    </contour>
  </outline>
</glyph>
<glyph name="uni03DC" format="2">
  <advance width="1094"/>
  <unicode hex="03DC"/>
  <anchor x="547" y="0" name="bottom"/>
  <anchor x="547" y="1462" name="top"/>
  <outline>
    <contour>
      <point x="199" y="0" type="line"/>
      <point x="383" y="0" type="line"/>
      <point x="383" y="621" type="line"/>
      <point x="770" y="621" type="line"/>
      <point x="770" y="358" type="line"/>
      <point x="946" y="358" type="line"/>
      <point x="946" y="782" type="line"/>
      <point x="383" y="782" type="line"/>
      <point x="383" y="1300" type="line"/>
      <point x="995" y="1300" type="line"/>
      <point x="995" y="1462" type="line"/>
      <point x="199" y="1462" type="line"/>
    </contour>
  </outline>
</glyph>
<glyph name="afii10018" format="2">
  <advance width="1260"/>
  <unicode hex="0411"/>
  <anchor x="631" y="0" name="bottom"/>
  <anchor x="631" y="1462" name="top"/>
  <outline>
    <contour>
      <point x="199" y="0" type="line"/>
      <point x="627" y="0" type="line" smooth="yes"/>
      <point x="1008" y="0"/>
      <point x="1155" y="160"/>
      <point x="1155" y="428" type="curve" smooth="yes"/>
      <point x="1155" y="668"/>
      <point x="1038" y="844"/>
      <point x="600" y="844" type="curve" smooth="yes"/>
      <point x="383" y="844" type="line"/>
      <point x="383" y="1300" type="line"/>
      <point x="1067" y="1300" type="line"/>
      <point x="1067" y="1462" type="line"/>
      <point x="199" y="1462" type="line"/>
    </contour>
    <contour>
      <point x="383" y="158" type="line"/>
      <point x="383" y="684" type="line"/>
      <point x="578" y="684" type="line" smooth="yes"/>
      <point x="858" y="684"/>
      <point x="965" y="616"/>
      <point x="965" y="428" type="curve" smooth="yes"/>
      <point x="965" y="246"/>
      <point x="870" y="158"/>
      <point x="608" y="158" type="curve" smooth="yes"/>
    </contour>
  </outline>
</glyph>
<glyph name="afii10025" format="2">
  <advance width="1204"/>
  <unicode hex="0417"/>
  <anchor x="602" y="0" name="bottom"/>
  <anchor x="588" y="1462" name="top"/>
  <outline>
    <contour>
      <point x="1063" y="1120" type="curve" smooth="yes"/>
      <point x="1063" y="1331"/>
      <point x="895" y="1483"/>
      <point x="580" y="1483" type="curve" smooth="yes"/>
      <point x="369" y="1483"/>
      <point x="199" y="1415"/>
      <point x="84" y="1331" type="curve"/>
      <point x="172" y="1206" type="line"/>
      <point x="287" y="1280"/>
      <point x="393" y="1331"/>
      <point x="578" y="1331" type="curve" smooth="yes"/>
      <point x="752" y="1331"/>
      <point x="872" y="1249"/>
      <point x="872" y="1102" type="curve" smooth="yes"/>
      <point x="872" y="938"/>
      <point x="729" y="834"/>
      <point x="440" y="834" type="curve" smooth="yes"/>
      <point x="242" y="834" type="line"/>
      <point x="242" y="680" type="line"/>
      <point x="451" y="680" type="line" smooth="yes"/>
      <point x="733" y="680"/>
      <point x="901" y="598"/>
      <point x="901" y="414" type="curve" smooth="yes"/>
      <point x="901" y="233"/>
      <point x="764" y="131"/>
      <point x="502" y="131" type="curve" smooth="yes"/>
      <point x="367" y="131"/>
      <point x="205" y="166"/>
      <point x="78" y="227" type="curve"/>
      <point x="78" y="59" type="line"/>
      <point x="201" y="0"/>
      <point x="346" y="-20"/>
      <point x="504" y="-20" type="curve" smooth="yes"/>
      <point x="897" y="-20"/>
      <point x="1094" y="156"/>
      <point x="1094" y="414" type="curve" smooth="yes"/>
      <point x="1094" y="606"/>
      <point x="963" y="731"/>
      <point x="717" y="764" type="curve"/>
      <point x="717" y="772" type="line"/>
      <point x="928" y="805"/>
      <point x="1063" y="922"/>
    </contour>
  </outline>
</glyph>
<glyph name="afii10026" format="2">
  <advance width="1573"/>
  <unicode hex="0418"/>
  <anchor x="786" y="0" name="bottom"/>
  <anchor x="809" y="1462" name="top"/>
  <outline>
    <contour>
      <point x="201" y="1462" type="line"/>
      <point x="201" y="0" type="line"/>
      <point x="406" y="0" type="line"/>
      <point x="1212" y="1217" type="line"/>
      <point x="1221" y="1217" type="line"/>
      <point x="1217" y="1155"/>
      <point x="1204" y="944"/>
      <point x="1204" y="795" type="curve" smooth="yes"/>
      <point x="1204" y="0" type="line"/>
      <point x="1376" y="0" type="line"/>
      <point x="1376" y="1462" type="line"/>
      <point x="1171" y="1462" type="line"/>
      <point x="367" y="252" type="line"/>
      <point x="358" y="252" type="line"/>
      <point x="365" y="315"/>
      <point x="373" y="522"/>
      <point x="373" y="659" type="curve" smooth="yes"/>
      <point x="373" y="1462" type="line"/>
    </contour>
  </outline>
</glyph>
<glyph name="afii10066" format="2">
  <advance width="1227"/>
  <unicode hex="0431"/>
  <anchor x="614" y="0" name="bottom"/>
  <anchor x="614" y="1567" name="top"/>
  <outline>
    <contour>
      <point x="117" y="659" type="curve" smooth="yes"/>
      <point x="117" y="217"/>
      <point x="311" y="-20"/>
      <point x="614" y="-20" type="curve" smooth="yes"/>
      <point x="911" y="-20"/>
      <point x="1116" y="162"/>
      <point x="1116" y="528" type="curve" smooth="yes"/>
      <point x="1116" y="821"/>
      <point x="971" y="1022"/>
      <point x="686" y="1022" type="curve" smooth="yes"/>
      <point x="506" y="1022"/>
      <point x="383" y="922"/>
      <point x="326" y="844" type="curve"/>
      <point x="313" y="844" type="line"/>
      <point x="326" y="1151"/>
      <point x="434" y="1284"/>
      <point x="612" y="1323" type="curve" smooth="yes"/>
      <point x="739" y="1350"/>
      <point x="961" y="1386"/>
      <point x="1104" y="1409" type="curve"/>
      <point x="1073" y="1567" type="line"/>
      <point x="926" y="1542"/>
      <point x="752" y="1511"/>
      <point x="575" y="1475" type="curve" smooth="yes"/>
      <point x="254" y="1405"/>
      <point x="117" y="1139"/>
    </contour>
    <contour>
      <point x="629" y="129" type="curve" smooth="yes"/>
      <point x="365" y="129"/>
      <point x="301" y="389"/>
      <point x="301" y="655" type="curve"/>
      <point x="340" y="725"/>
      <point x="475" y="872"/>
      <point x="657" y="872" type="curve" smooth="yes"/>
      <point x="848" y="872"/>
      <point x="926" y="733"/>
      <point x="926" y="510" type="curve" smooth="yes"/>
      <point x="926" y="231"/>
      <point x="807" y="129"/>
    </contour>
  </outline>
</glyph>
<glyph name="afii10107" format="2">
  <advance width="1815"/>
  <unicode hex="045A"/>
  <anchor x="907" y="0" name="bottom"/>
  <anchor x="907" y="1098" name="top"/>
  <outline>
    <contour>
      <point x="1032" y="1098" type="line"/>
      <point x="850" y="1098" type="line"/>
      <point x="850" y="641" type="line"/>
      <point x="358" y="641" type="line"/>
      <point x="358" y="1098" type="line"/>
      <point x="174" y="1098" type="line"/>
      <point x="174" y="0" type="line"/>
      <point x="358" y="0" type="line"/>
      <point x="358" y="489" type="line"/>
      <point x="846" y="489" type="line"/>
      <point x="846" y="0" type="line"/>
      <point x="1266" y="0" type="line" smooth="yes"/>
      <point x="1581" y="0"/>
      <point x="1704" y="131"/>
      <point x="1704" y="336" type="curve" smooth="yes"/>
      <point x="1704" y="541"/>
      <point x="1571" y="645"/>
      <point x="1278" y="645" type="curve" smooth="yes"/>
      <point x="1032" y="645" type="line"/>
    </contour>
    <contour>
      <point x="1253" y="496" type="line"/>
      <point x="1432" y="496"/>
      <point x="1526" y="457"/>
      <point x="1526" y="326" type="curve" smooth="yes"/>
      <point x="1526" y="195"/>
      <point x="1417" y="145"/>
      <point x="1257" y="145" type="curve" smooth="yes"/>
      <point x="1028" y="145" type="line"/>
      <point x="1028" y="496" type="line"/>
    </contour>
  </outline>
</glyph>
<glyph name="uni0472" format="2">
  <advance width="1602"/>
  <unicode hex="0472"/>
  <anchor x="801" y="0" name="bottom"/>
  <anchor x="801" y="1462" name="top"/>
  <outline>
    <contour>
      <point x="1475" y="733" type="curve" smooth="yes"/>
      <point x="1475" y="1188"/>
      <point x="1241" y="1485"/>
      <point x="803" y="1485" type="curve" smooth="yes"/>
      <point x="344" y="1485"/>
      <point x="125" y="1184"/>
      <point x="125" y="735" type="curve" smooth="yes"/>
      <point x="125" y="283"/>
      <point x="344" y="-20"/>
      <point x="801" y="-20" type="curve" smooth="yes"/>
      <point x="1241" y="-20"/>
      <point x="1475" y="281"/>
    </contour>
    <contour>
      <point x="801" y="139" type="curve" smooth="yes"/>
      <point x="487" y="139"/>
      <point x="338" y="336"/>
      <point x="322" y="666" type="curve"/>
      <point x="1278" y="666" type="line"/>
      <point x="1262" y="336"/>
      <point x="1112" y="139"/>
    </contour>
    <contour>
      <point x="803" y="1323" type="curve" smooth="yes"/>
      <point x="1106" y="1323"/>
      <point x="1251" y="1137"/>
      <point x="1276" y="825" type="curve"/>
      <point x="322" y="825" type="line"/>
      <point x="346" y="1137"/>
      <point x="496" y="1323"/>
    </contour>
  </outline>
</glyph>
<glyph name="uni0473" format="2">
  <advance width="1239"/>
  <unicode hex="0473"/>
  <anchor x="621" y="0" name="bottom"/>
  <anchor x="621" y="1098" name="top"/>
  <outline>
    <contour>
      <point x="1128" y="551" type="curve" smooth="yes"/>
      <point x="1128" y="913"/>
      <point x="920" y="1118"/>
      <point x="623" y="1118" type="curve" smooth="yes"/>
      <point x="307" y="1118"/>
      <point x="113" y="913"/>
      <point x="113" y="551" type="curve" smooth="yes"/>
      <point x="113" y="186"/>
      <point x="326" y="-20"/>
      <point x="616" y="-20" type="curve" smooth="yes"/>
      <point x="930" y="-20"/>
      <point x="1128" y="186"/>
    </contour>
    <contour>
      <point x="621" y="129" type="curve" smooth="yes"/>
      <point x="414" y="129"/>
      <point x="311" y="254"/>
      <point x="299" y="489" type="curve"/>
      <point x="940" y="489" type="line"/>
      <point x="926" y="254"/>
      <point x="829" y="129"/>
    </contour>
    <contour>
      <point x="618" y="967" type="curve" smooth="yes"/>
      <point x="817" y="967"/>
      <point x="920" y="854"/>
      <point x="940" y="639" type="curve"/>
      <point x="301" y="639" type="line"/>
      <point x="319" y="854"/>
      <point x="416" y="967"/>
    </contour>
  </outline>
</glyph>
<glyph name="palatalizationcomb-cy" format="2">
  <unicode hex="0484"/>
  <anchor x="-561" y="1098" name="_top"/>
  <anchor x="-557" y="1501" name="top"/>
  <outline>
    <contour>
      <point x="-422" y="1501" type="curve" smooth="yes"/>
      <point x="-578" y="1501"/>
      <point x="-713" y="1384"/>
      <point x="-922" y="1384" type="curve" smooth="yes"/>
      <point x="-934" y="1384" type="line"/>
      <point x="-934" y="1255" type="line"/>
      <point x="-918" y="1255" type="line" smooth="yes"/>
      <point x="-688" y="1255"/>
      <point x="-541" y="1370"/>
      <point x="-426" y="1370" type="curve" smooth="yes"/>
      <point x="-369" y="1370"/>
      <point x="-319" y="1350"/>
      <point x="-319" y="1251" type="curve"/>
      <point x="-190" y="1251" type="line"/>
      <point x="-190" y="1284" type="line" smooth="yes"/>
      <point x="-190" y="1430"/>
      <point x="-276" y="1501"/>
    </contour>
  </outline>
</glyph>
<glyph name="uni04AF" format="2">
  <advance width="1040"/>
  <unicode hex="04AF"/>
  <anchor x="520" y="-492" name="bottom"/>
  <anchor x="520" y="1098" name="top"/>
  <outline>
    <contour>
      <point x="610" y="-492" type="line"/>
      <point x="610" y="-4" type="line"/>
      <point x="1040" y="1098" type="line"/>
      <point x="852" y="1098" type="line"/>
      <point x="625" y="496" type="line" smooth="yes"/>
      <point x="582" y="383"/>
      <point x="543" y="248"/>
      <point x="526" y="180" type="curve"/>
      <point x="516" y="180" type="line"/>
      <point x="502" y="248"/>
      <point x="459" y="385"/>
      <point x="418" y="496" type="curve" smooth="yes"/>
      <point x="188" y="1098" type="line"/>
      <point x="0" y="1098" type="line"/>
      <point x="430" y="-4" type="line"/>
      <point x="430" y="-492" type="line"/>
    </contour>
  </outline>
</glyph>
<glyph name="uni04B7" format="2">
  <advance width="1272"/>
  <unicode hex="04B7"/>
  <anchor x="637" y="-381" name="bottom"/>
  <anchor x="637" y="1098" name="top"/>
  <outline>
    <contour>
      <point x="1081" y="1098" type="line"/>
      <point x="901" y="1098" type="line"/>
      <point x="901" y="627" type="line"/>
      <point x="784" y="555"/>
      <point x="680" y="510"/>
      <point x="543" y="510" type="curve" smooth="yes"/>
      <point x="406" y="510"/>
      <point x="332" y="569"/>
      <point x="332" y="698" type="curve" smooth="yes"/>
      <point x="332" y="1098" type="line"/>
      <point x="152" y="1098" type="line"/>
      <point x="152" y="686" type="line" smooth="yes"/>
      <point x="152" y="489"/>
      <point x="281" y="362"/>
      <point x="506" y="362" type="curve" smooth="yes"/>
      <point x="672" y="362"/>
      <point x="778" y="410"/>
      <point x="901" y="489" type="curve"/>
      <point x="901" y="0" type="line"/>
      <point x="1065" y="0" type="line"/>
      <point x="1065" y="-381" type="line"/>
      <point x="1243" y="-381" type="line"/>
      <point x="1243" y="152" type="line"/>
      <point x="1081" y="152" type="line"/>
    </contour>
  </outline>
</glyph>
<glyph name="uni04BE" format="2">
  <advance width="1739"/>
  <unicode hex="04BE"/>
  <anchor x="1014" y="-385" name="bottom"/>
  <anchor x="1014" y="1462" name="top"/>
  <outline>
    <contour>
      <point x="1012" y="1485" type="curve" smooth="yes"/>
      <point x="641" y="1485"/>
      <point x="406" y="1257"/>
      <point x="362" y="823" type="curve"/>
      <point x="328" y="823" type="line" smooth="yes"/>
      <point x="254" y="823"/>
      <point x="217" y="856"/>
      <point x="217" y="924" type="curve" smooth="yes"/>
      <point x="217" y="971"/>
      <point x="229" y="1016"/>
      <point x="238" y="1036" type="curve"/>
      <point x="84" y="1036" type="line"/>
      <point x="68" y="1004"/>
      <point x="55" y="956"/>
      <point x="55" y="901" type="curve"/>
      <point x="55" y="756"/>
      <point x="162" y="664"/>
      <point x="311" y="664" type="curve" smooth="yes"/>
      <point x="360" y="664" type="line"/>
      <point x="385" y="281"/>
      <point x="571" y="29"/>
      <point x="930" y="-10" type="curve"/>
      <point x="930" y="-385" type="line"/>
      <point x="1108" y="-385" type="line"/>
      <point x="1108" y="-16" type="line"/>
      <point x="1290" y="-12"/>
      <point x="1417" y="16"/>
      <point x="1524" y="55" type="curve"/>
      <point x="1524" y="223" type="line"/>
      <point x="1397" y="180"/>
      <point x="1251" y="141"/>
      <point x="1067" y="141" type="curve" smooth="yes"/>
      <point x="737" y="141"/>
      <point x="575" y="328"/>
      <point x="555" y="664" type="curve"/>
      <point x="1616" y="664" type="line"/>
      <point x="1616" y="774" type="line" smooth="yes"/>
      <point x="1616" y="1188"/>
      <point x="1446" y="1485"/>
    </contour>
    <contour>
      <point x="1010" y="1321" type="curve" smooth="yes"/>
      <point x="1313" y="1321"/>
      <point x="1419" y="1133"/>
      <point x="1419" y="823" type="curve"/>
      <point x="555" y="823" type="line"/>
      <point x="578" y="1149"/>
      <point x="745" y="1321"/>
    </contour>
  </outline>
</glyph>
<glyph name="uni04C7" format="2">
  <advance width="1497"/>
  <unicode hex="04C7"/>
  <anchor x="750" y="-512" name="bottom"/>
  <anchor x="750" y="1462" name="top"/>
  <outline>
    <contour>
      <point x="1317" y="1462" type="line"/>
      <point x="1135" y="1462" type="line"/>
      <point x="1135" y="844" type="line"/>
      <point x="383" y="844" type="line"/>
      <point x="383" y="1462" type="line"/>
      <point x="199" y="1462" type="line"/>
      <point x="199" y="0" type="line"/>
      <point x="383" y="0" type="line"/>
      <point x="383" y="682" type="line"/>
      <point x="1135" y="682" type="line"/>
      <point x="1135" y="139" type="line" smooth="yes"/>
      <point x="1135" y="-193"/>
      <point x="1001" y="-350"/>
      <point x="752" y="-350" type="curve" smooth="yes"/>
      <point x="655" y="-350"/>
      <point x="573" y="-334"/>
      <point x="489" y="-301" type="curve"/>
      <point x="489" y="-463" type="line"/>
      <point x="573" y="-496"/>
      <point x="645" y="-512"/>
      <point x="774" y="-512" type="curve" smooth="yes"/>
      <point x="1092" y="-512"/>
      <point x="1317" y="-309"/>
      <point x="1317" y="143" type="curve" smooth="yes"/>
    </contour>
  </outline>
</glyph>
<glyph name="uni04D8" format="2">
  <advance width="1513"/>
  <unicode hex="04D8"/>
  <anchor x="758" y="0" name="bottom"/>
  <anchor x="713" y="1462" name="top"/>
  <outline>
    <contour>
      <point x="680" y="1323" type="curve" smooth="yes"/>
      <point x="1010" y="1323"/>
      <point x="1171" y="1130"/>
      <point x="1192" y="801" type="curve"/>
      <point x="121" y="801" type="line"/>
      <point x="121" y="731" type="line" smooth="yes"/>
      <point x="121" y="276"/>
      <point x="291" y="-20"/>
      <point x="727" y="-20" type="curve" smooth="yes"/>
      <point x="1155" y="-20"/>
      <point x="1386" y="276"/>
      <point x="1386" y="729" type="curve" smooth="yes"/>
      <point x="1386" y="1186"/>
      <point x="1145" y="1485"/>
      <point x="684" y="1485" type="curve" smooth="yes"/>
      <point x="469" y="1485"/>
      <point x="334" y="1450"/>
      <point x="213" y="1407" type="curve"/>
      <point x="213" y="1239" type="line"/>
      <point x="344" y="1284"/>
      <point x="496" y="1323"/>
    </contour>
    <contour>
      <point x="727" y="141" type="curve" smooth="yes"/>
      <point x="424" y="141"/>
      <point x="317" y="330"/>
      <point x="317" y="639" type="curve"/>
      <point x="1192" y="639" type="line"/>
      <point x="1171" y="317"/>
      <point x="995" y="141"/>
    </contour>
  </outline>
</glyph>
<glyph name="uni04FC" format="2">
  <advance width="1294"/>
  <unicode hex="04FC"/>
  <anchor x="647" y="-406" name="bottom"/>
  <anchor x="647" y="1462" name="top"/>
  <outline>
    <contour>
      <point x="1008" y="-406" type="curve" smooth="yes"/>
      <point x="1171" y="-406"/>
      <point x="1247" y="-309"/>
      <point x="1247" y="-133" type="curve" smooth="yes"/>
      <point x="1247" y="164" type="line"/>
      <point x="1087" y="164" type="line"/>
      <point x="705" y="766" type="line"/>
      <point x="1157" y="1462" type="line"/>
      <point x="963" y="1462" type="line"/>
      <point x="602" y="889" type="line"/>
      <point x="244" y="1462" type="line"/>
      <point x="39" y="1462" type="line"/>
      <point x="494" y="762" type="line"/>
      <point x="8" y="0" type="line"/>
      <point x="203" y="0" type="line"/>
      <point x="596" y="635" type="line"/>
      <point x="983" y="0" type="line"/>
      <point x="1085" y="0" type="line"/>
      <point x="1085" y="-143" type="line" smooth="yes"/>
      <point x="1085" y="-217"/>
      <point x="1049" y="-250"/>
      <point x="987" y="-250" type="curve" smooth="yes"/>
      <point x="944" y="-250"/>
      <point x="907" y="-240"/>
      <point x="885" y="-231" type="curve"/>
      <point x="885" y="-381" type="line"/>
      <point x="911" y="-391"/>
      <point x="956" y="-406"/>
    </contour>
  </outline>
</glyph>
<glyph name="uni0505" format="2">
  <advance width="1657"/>
  <unicode hex="0505"/>
  <anchor x="829" y="0" name="bottom"/>
  <anchor x="829" y="1098" name="top"/>
  <outline>
    <contour>
      <point x="440" y="1118" type="curve" smooth="yes"/>
      <point x="293" y="1118"/>
      <point x="188" y="1094"/>
      <point x="78" y="1042" type="curve"/>
      <point x="137" y="899" type="line"/>
      <point x="242" y="944"/>
      <point x="330" y="969"/>
      <point x="434" y="969" type="curve" smooth="yes"/>
      <point x="584" y="969"/>
      <point x="668" y="918"/>
      <point x="668" y="813" type="curve" smooth="yes"/>
      <point x="668" y="690"/>
      <point x="557" y="645"/>
      <point x="379" y="645" type="curve" smooth="yes"/>
      <point x="264" y="645" type="line"/>
      <point x="264" y="498" type="line"/>
      <point x="406" y="498" type="line" smooth="yes"/>
      <point x="600" y="498"/>
      <point x="694" y="442"/>
      <point x="700" y="309" type="curve" smooth="yes"/>
      <point x="709" y="92"/>
      <point x="844" y="-20"/>
      <point x="1100" y="-20" type="curve" smooth="yes"/>
      <point x="1364" y="-20"/>
      <point x="1491" y="109"/>
      <point x="1491" y="377" type="curve" smooth="yes"/>
      <point x="1491" y="700" type="line"/>
      <point x="1313" y="700" type="line"/>
      <point x="1313" y="393" type="line" smooth="yes"/>
      <point x="1313" y="217"/>
      <point x="1243" y="131"/>
      <point x="1098" y="131" type="curve" smooth="yes"/>
      <point x="942" y="131"/>
      <point x="881" y="209"/>
      <point x="877" y="332" type="curve" smooth="yes"/>
      <point x="870" y="473"/>
      <point x="780" y="551"/>
      <point x="647" y="578" type="curve"/>
      <point x="647" y="586" type="line"/>
      <point x="766" y="621"/>
      <point x="842" y="696"/>
      <point x="842" y="829" type="curve" smooth="yes"/>
      <point x="842" y="1014"/>
      <point x="680" y="1118"/>
    </contour>
  </outline>
</glyph>
<glyph name="uni0509" format="2">
  <advance width="1759"/>
  <unicode hex="0509"/>
  <anchor x="881" y="0" name="bottom"/>
  <anchor x="881" y="1098" name="top"/>
  <outline>
    <contour>
      <point x="991" y="385" type="curve" smooth="yes"/>
      <point x="991" y="1098" type="line"/>
      <point x="346" y="1098" type="line"/>
      <point x="301" y="434"/>
      <point x="217" y="131"/>
      <point x="70" y="131" type="curve" smooth="yes"/>
      <point x="51" y="131"/>
      <point x="31" y="133"/>
      <point x="14" y="137" type="curve"/>
      <point x="14" y="0" type="line"/>
      <point x="37" y="-8"/>
      <point x="72" y="-12"/>
      <point x="109" y="-12" type="curve" smooth="yes"/>
      <point x="342" y="-12"/>
      <point x="451" y="256"/>
      <point x="502" y="948" type="curve"/>
      <point x="811" y="948" type="line"/>
      <point x="811" y="379" type="line" smooth="yes"/>
      <point x="811" y="106"/>
      <point x="956" y="-20"/>
      <point x="1210" y="-20" type="curve" smooth="yes"/>
      <point x="1464" y="-20"/>
      <point x="1595" y="109"/>
      <point x="1595" y="377" type="curve" smooth="yes"/>
      <point x="1595" y="700" type="line"/>
      <point x="1415" y="700" type="line"/>
      <point x="1415" y="391" type="line" smooth="yes"/>
      <point x="1415" y="217"/>
      <point x="1346" y="131"/>
      <point x="1208" y="131" type="curve" smooth="yes"/>
      <point x="1055" y="131"/>
      <point x="991" y="213"/>
    </contour>
  </outline>
</glyph>
<glyph name="uni050C" format="2">
  <advance width="1556"/>
  <unicode hex="050C"/>
  <anchor x="778" y="0" name="bottom"/>
  <anchor x="778" y="1462" name="top"/>
  <outline>
    <contour>
      <point x="866" y="758" type="line"/>
      <point x="866" y="596" type="line"/>
      <point x="1249" y="596" type="line"/>
      <point x="1249" y="330"/>
      <point x="1137" y="139"/>
      <point x="823" y="139" type="curve" smooth="yes"/>
      <point x="479" y="139"/>
      <point x="317" y="381"/>
      <point x="317" y="731" type="curve" smooth="yes"/>
      <point x="317" y="1096"/>
      <point x="508" y="1321"/>
      <point x="860" y="1321" type="curve" smooth="yes"/>
      <point x="1001" y="1321"/>
      <point x="1149" y="1280"/>
      <point x="1253" y="1235" type="curve"/>
      <point x="1323" y="1393" type="line"/>
      <point x="1200" y="1448"/>
      <point x="1038" y="1483"/>
      <point x="877" y="1483" type="curve" smooth="yes"/>
      <point x="389" y="1483"/>
      <point x="125" y="1182"/>
      <point x="125" y="733" type="curve" smooth="yes"/>
      <point x="125" y="268"/>
      <point x="377" y="-20"/>
      <point x="819" y="-20" type="curve" smooth="yes"/>
      <point x="1260" y="-20"/>
      <point x="1442" y="227"/>
      <point x="1442" y="670" type="curve" smooth="yes"/>
      <point x="1442" y="758" type="line"/>
    </contour>
  </outline>
</glyph>
<glyph name="uni0515" format="2">
  <advance width="1657"/>
  <unicode hex="0515"/>
  <anchor x="829" y="0" name="bottom"/>
  <anchor x="829" y="1098" name="top"/>
  <outline>
    <contour>
      <point x="109" y="-12" type="curve" smooth="yes"/>
      <point x="342" y="-12"/>
      <point x="451" y="254"/>
      <point x="502" y="946" type="curve"/>
      <point x="735" y="946" type="line"/>
      <point x="1008" y="561" type="line"/>
      <point x="610" y="0" type="line"/>
      <point x="813" y="0" type="line"/>
      <point x="1116" y="438" type="line"/>
      <point x="1415" y="0" type="line"/>
      <point x="1620" y="0" type="line"/>
      <point x="1221" y="561" type="line"/>
      <point x="1599" y="1098" type="line"/>
      <point x="1397" y="1098" type="line"/>
      <point x="1116" y="684" type="line"/>
      <point x="834" y="1098" type="line"/>
      <point x="346" y="1098" type="line"/>
      <point x="301" y="434"/>
      <point x="217" y="131"/>
      <point x="70" y="131" type="curve" smooth="yes"/>
      <point x="51" y="131"/>
      <point x="31" y="133"/>
      <point x="14" y="137" type="curve"/>
      <point x="14" y="0" type="line"/>
      <point x="37" y="-8"/>
      <point x="72" y="-12"/>
    </contour>
  </outline>
</glyph>
<glyph name="uni0522" format="2">
  <advance width="2234"/>
  <unicode hex="0522"/>
  <anchor x="1118" y="-512" name="bottom"/>
  <anchor x="1118" y="1462" name="top"/>
  <outline>
    <contour>
      <point x="1317" y="791" type="curve"/>
      <point x="1317" y="1462" type="line"/>
      <point x="1133" y="1462" type="line"/>
      <point x="1133" y="844" type="line"/>
      <point x="383" y="844" type="line"/>
      <point x="383" y="1462" type="line"/>
      <point x="199" y="1462" type="line"/>
      <point x="199" y="0" type="line"/>
      <point x="383" y="0" type="line"/>
      <point x="383" y="682" type="line"/>
      <point x="1133" y="682" type="line"/>
      <point x="1133" y="0" type="line"/>
      <point x="1317" y="0" type="line"/>
      <point x="1317" y="627" type="line"/>
      <point x="1358" y="637"/>
      <point x="1450" y="641"/>
      <point x="1507" y="641" type="curve" smooth="yes"/>
      <point x="1802" y="641"/>
      <point x="1968" y="475"/>
      <point x="1968" y="147" type="curve" smooth="yes"/>
      <point x="1968" y="-174"/>
      <point x="1839" y="-348"/>
      <point x="1595" y="-348" type="curve" smooth="yes"/>
      <point x="1501" y="-348"/>
      <point x="1419" y="-330"/>
      <point x="1335" y="-299" type="curve"/>
      <point x="1335" y="-463" type="line"/>
      <point x="1417" y="-494"/>
      <point x="1491" y="-512"/>
      <point x="1620" y="-512" type="curve" smooth="yes"/>
      <point x="1937" y="-512"/>
      <point x="2161" y="-295"/>
      <point x="2161" y="145" type="curve" smooth="yes"/>
      <point x="2161" y="551"/>
      <point x="1933" y="803"/>
      <point x="1520" y="803" type="curve" smooth="yes"/>
      <point x="1452" y="803"/>
      <point x="1368" y="799"/>
    </contour>
  </outline>
</glyph>
<glyph name="uni1D01" format="2">
  <advance width="1452"/>
  <unicode hex="1D01"/>
  <anchor x="727" y="0" name="bottom"/>
  <anchor x="727" y="1098" name="top"/>
  <outline>
    <contour>
      <point x="1331" y="0" type="line"/>
      <point x="1331" y="147" type="line"/>
      <point x="899" y="147" type="line"/>
      <point x="899" y="500" type="line"/>
      <point x="1303" y="500" type="line"/>
      <point x="1303" y="645" type="line"/>
      <point x="899" y="645" type="line"/>
      <point x="899" y="950" type="line"/>
      <point x="1331" y="950" type="line"/>
      <point x="1331" y="1098" type="line"/>
      <point x="553" y="1098" type="line"/>
      <point x="16" y="0" type="line"/>
      <point x="207" y="0" type="line"/>
      <point x="371" y="330" type="line"/>
      <point x="717" y="330" type="line"/>
      <point x="717" y="0" type="line"/>
    </contour>
    <contour>
      <point x="440" y="479" type="line"/>
      <point x="666" y="948" type="line"/>
      <point x="717" y="948" type="line"/>
      <point x="717" y="479" type="line"/>
    </contour>
  </outline>
</glyph>
<glyph name="uni1D0B" format="2">
  <advance width="1049"/>
  <unicode hex="1D0B"/>
  <anchor x="524" y="0" name="bottom"/>
  <anchor x="524" y="1098" name="top"/>
  <outline>
    <contour>
      <point x="176" y="0" type="line"/>
      <point x="358" y="0" type="line"/>
      <point x="358" y="424" type="line"/>
      <point x="446" y="500" type="line"/>
      <point x="825" y="0" type="line"/>
      <point x="1036" y="0" type="line"/>
      <point x="573" y="616" type="line"/>
      <point x="1022" y="1098" type="line"/>
      <point x="811" y="1098" type="line"/>
      <point x="479" y="735" type="line" smooth="yes"/>
      <point x="459" y="713"/>
      <point x="414" y="666"/>
      <point x="358" y="596" type="curve"/>
      <point x="358" y="1098" type="line"/>
      <point x="176" y="1098" type="line"/>
    </contour>
  </outline>
</glyph>
<glyph name="uni1D0C" format="2">
  <advance width="903"/>
  <unicode hex="1D0C"/>
  <anchor x="453" y="0" name="bottom"/>
  <anchor x="453" y="1098" name="top"/>
  <outline>
    <contour>
      <point x="176" y="0" type="line"/>
      <point x="838" y="0" type="line"/>
      <point x="838" y="150" type="line"/>
      <point x="358" y="150" type="line"/>
      <point x="358" y="457" type="line"/>
      <point x="629" y="608" type="line"/>
      <point x="555" y="731" type="line"/>
      <point x="358" y="618" type="line"/>
      <point x="358" y="1098" type="line"/>
      <point x="176" y="1098" type="line"/>
      <point x="176" y="514" type="line"/>
      <point x="43" y="436" type="line"/>
      <point x="115" y="317" type="line"/>
      <point x="176" y="352" type="line"/>
    </contour>
  </outline>
</glyph>
<glyph name="uni1D15" format="2">
  <advance width="1128"/>
  <unicode hex="1D15"/>
  <anchor x="565" y="0" name="bottom"/>
  <anchor x="565" y="1098" name="top"/>
  <outline>
    <contour>
      <point x="956" y="1098" type="line"/>
      <point x="776" y="1098" type="line"/>
      <point x="776" y="950" type="line" smooth="yes"/>
      <point x="776" y="823"/>
      <point x="711" y="733"/>
      <point x="563" y="733" type="curve" smooth="yes"/>
      <point x="420" y="733"/>
      <point x="354" y="823"/>
      <point x="354" y="950" type="curve" smooth="yes"/>
      <point x="354" y="1098" type="line"/>
      <point x="172" y="1098" type="line"/>
      <point x="172" y="950" type="line" smooth="yes"/>
      <point x="172" y="823"/>
      <point x="223" y="723"/>
      <point x="324" y="668" type="curve"/>
      <point x="193" y="616"/>
      <point x="117" y="518"/>
      <point x="117" y="362" type="curve" smooth="yes"/>
      <point x="117" y="123"/>
      <point x="309" y="-14"/>
      <point x="561" y="-14" type="curve" smooth="yes"/>
      <point x="834" y="-14"/>
      <point x="1012" y="123"/>
      <point x="1012" y="362" type="curve" smooth="yes"/>
      <point x="1012" y="516"/>
      <point x="930" y="616"/>
      <point x="801" y="666" type="curve"/>
      <point x="911" y="723"/>
      <point x="956" y="817"/>
      <point x="956" y="950" type="curve" smooth="yes"/>
    </contour>
    <contour>
      <point x="563" y="588" type="curve" smooth="yes"/>
      <point x="741" y="588"/>
      <point x="823" y="506"/>
      <point x="823" y="362" type="curve" smooth="yes"/>
      <point x="823" y="217"/>
      <point x="741" y="131"/>
      <point x="563" y="131" type="curve" smooth="yes"/>
      <point x="385" y="131"/>
      <point x="305" y="217"/>
      <point x="305" y="362" type="curve" smooth="yes"/>
      <point x="305" y="506"/>
      <point x="385" y="588"/>
    </contour>
  </outline>
</glyph>
<glyph name="uni1D1C" format="2">
  <advance width="1221"/>
  <unicode hex="1D1C"/>
  <anchor x="610" y="0" name="bottom"/>
  <anchor x="610" y="1098" name="top"/>
  <outline>
    <contour>
      <point x="1055" y="1098" type="line"/>
      <point x="874" y="1098" type="line"/>
      <point x="874" y="391" type="line" smooth="yes"/>
      <point x="874" y="240"/>
      <point x="797" y="131"/>
      <point x="612" y="131" type="curve" smooth="yes"/>
      <point x="434" y="131"/>
      <point x="348" y="225"/>
      <point x="348" y="391" type="curve" smooth="yes"/>
      <point x="348" y="1098" type="line"/>
      <point x="166" y="1098" type="line"/>
      <point x="166" y="395" type="line" smooth="yes"/>
      <point x="166" y="147"/>
      <point x="317" y="-14"/>
      <point x="606" y="-14" type="curve" smooth="yes"/>
      <point x="911" y="-14"/>
      <point x="1055" y="162"/>
      <point x="1055" y="391" type="curve" smooth="yes"/>
    </contour>
  </outline>
</glyph>
<glyph name="uni1D73" format="2">
  <advance width="709"/>
  <unicode hex="1D73"/>
  <outline>
    <contour>
      <point x="168" y="0" type="line"/>
      <point x="346" y="0" type="line"/>
      <point x="346" y="375" type="line"/>
      <point x="365" y="367"/>
      <point x="385" y="362"/>
      <point x="406" y="362" type="curve" smooth="yes"/>
      <point x="520" y="362"/>
      <point x="588" y="465"/>
      <point x="602" y="625" type="curve"/>
      <point x="500" y="625" type="line"/>
      <point x="481" y="545"/>
      <point x="457" y="506"/>
      <point x="401" y="506" type="curve" smooth="yes"/>
      <point x="383" y="506"/>
      <point x="365" y="512"/>
      <point x="346" y="520" type="curve"/>
      <point x="346" y="774" type="line" smooth="yes"/>
      <point x="346" y="905"/>
      <point x="393" y="963"/>
      <point x="489" y="963" type="curve" smooth="yes"/>
      <point x="563" y="963"/>
      <point x="614" y="942"/>
      <point x="649" y="932" type="curve"/>
      <point x="672" y="1085" type="line"/>
      <point x="623" y="1102"/>
      <point x="551" y="1118"/>
      <point x="496" y="1118" type="curve" smooth="yes"/>
      <point x="299" y="1118"/>
      <point x="168" y="1044"/>
      <point x="168" y="776" type="curve" smooth="yes"/>
      <point x="168" y="616" type="line"/>
      <point x="154" y="621"/>
      <point x="139" y="623"/>
      <point x="125" y="623" type="curve" smooth="yes"/>
      <point x="12" y="623"/>
      <point x="-57" y="522"/>
      <point x="-72" y="360" type="curve"/>
      <point x="33" y="360" type="line"/>
      <point x="49" y="440"/>
      <point x="74" y="479"/>
      <point x="131" y="479" type="curve" smooth="yes"/>
      <point x="143" y="479"/>
      <point x="156" y="475"/>
      <point x="168" y="471" type="curve"/>
    </contour>
  </outline>
</glyph>
<glyph name="uni1D76" format="2">
  <advance width="963"/>
  <unicode hex="1D76"/>
  <outline>
    <contour>
      <point x="868" y="1098" type="line"/>
      <point x="115" y="1098" type="line"/>
      <point x="115" y="958" type="line"/>
      <point x="670" y="958" type="line"/>
      <point x="444" y="637" type="line"/>
      <point x="385" y="662"/>
      <point x="326" y="684"/>
      <point x="266" y="684" type="curve" smooth="yes"/>
      <point x="154" y="684"/>
      <point x="84" y="584"/>
      <point x="70" y="422" type="curve"/>
      <point x="174" y="422" type="line"/>
      <point x="190" y="502"/>
      <point x="215" y="541"/>
      <point x="272" y="541" type="curve" smooth="yes"/>
      <point x="303" y="541"/>
      <point x="334" y="535"/>
      <point x="365" y="524" type="curve"/>
      <point x="80" y="119" type="line"/>
      <point x="80" y="0" type="line"/>
      <point x="883" y="0" type="line"/>
      <point x="883" y="139" type="line"/>
      <point x="287" y="139" type="line"/>
      <point x="516" y="465" type="line"/>
      <point x="571" y="442"/>
      <point x="627" y="424"/>
      <point x="682" y="424" type="curve" smooth="yes"/>
      <point x="797" y="424"/>
      <point x="864" y="526"/>
      <point x="879" y="686" type="curve"/>
      <point x="776" y="686" type="line"/>
      <point x="758" y="606"/>
      <point x="733" y="567"/>
      <point x="678" y="567" type="curve" smooth="yes"/>
      <point x="651" y="567"/>
      <point x="625" y="571"/>
      <point x="598" y="578" type="curve"/>
      <point x="868" y="963" type="line"/>
    </contour>
  </outline>
</glyph>
<glyph name="uni1D82" format="2">
  <advance width="705"/>
  <unicode hex="1D82"/>
  <outline>
    <contour>
      <point x="254" y="-406" type="curve" smooth="yes"/>
      <point x="418" y="-406"/>
      <point x="494" y="-309"/>
      <point x="494" y="-133" type="curve" smooth="yes"/>
      <point x="494" y="150" type="line"/>
      <point x="383" y="150" type="line"/>
      <point x="332" y="20" type="line"/>
      <point x="332" y="-143" type="line" smooth="yes"/>
      <point x="332" y="-217"/>
      <point x="295" y="-250"/>
      <point x="233" y="-250" type="curve" smooth="yes"/>
      <point x="190" y="-250"/>
      <point x="154" y="-240"/>
      <point x="131" y="-231" type="curve"/>
      <point x="131" y="-381" type="line"/>
      <point x="158" y="-391"/>
      <point x="203" y="-406"/>
    </contour>
    <component base="f"/>
  </outline>
</glyph>
<glyph name="uni1D8A" format="2">
  <advance width="981"/>
  <unicode hex="1D8A"/>
  <outline>
    <contour>
      <point x="516" y="1118" type="curve" smooth="yes"/>
      <point x="270" y="1118"/>
      <point x="104" y="1014"/>
      <point x="104" y="827" type="curve" smooth="yes"/>
      <point x="104" y="647"/>
      <point x="231" y="582"/>
      <point x="444" y="500" type="curve" smooth="yes"/>
      <point x="659" y="418"/>
      <point x="715" y="369"/>
      <point x="715" y="287" type="curve" smooth="yes"/>
      <point x="715" y="188"/>
      <point x="637" y="125"/>
      <point x="455" y="125" type="curve" smooth="yes"/>
      <point x="326" y="125"/>
      <point x="193" y="170"/>
      <point x="106" y="213" type="curve"/>
      <point x="106" y="49" type="line"/>
      <point x="190" y="4"/>
      <point x="297" y="-20"/>
      <point x="451" y="-20" type="curve" smooth="yes"/>
      <point x="510" y="-20"/>
      <point x="565" y="-14"/>
      <point x="614" y="-4" type="curve"/>
      <point x="614" y="-143" type="line" smooth="yes"/>
      <point x="614" y="-217"/>
      <point x="578" y="-250"/>
      <point x="516" y="-250" type="curve" smooth="yes"/>
      <point x="473" y="-250"/>
      <point x="436" y="-240"/>
      <point x="414" y="-231" type="curve"/>
      <point x="414" y="-381" type="line"/>
      <point x="440" y="-391"/>
      <point x="485" y="-406"/>
      <point x="537" y="-406" type="curve" smooth="yes"/>
      <point x="700" y="-406"/>
      <point x="776" y="-309"/>
      <point x="776" y="-133" type="curve" smooth="yes"/>
      <point x="776" y="66" type="line"/>
      <point x="848" y="119"/>
      <point x="889" y="199"/>
      <point x="889" y="303" type="curve" smooth="yes"/>
      <point x="889" y="479"/>
      <point x="768" y="551"/>
      <point x="559" y="629" type="curve" smooth="yes"/>
      <point x="348" y="709"/>
      <point x="276" y="745"/>
      <point x="276" y="838" type="curve" smooth="yes"/>
      <point x="276" y="920"/>
      <point x="356" y="971"/>
      <point x="504" y="971" type="curve" smooth="yes"/>
      <point x="610" y="971"/>
      <point x="713" y="940"/>
      <point x="805" y="901" type="curve"/>
      <point x="866" y="1044" type="line"/>
      <point x="764" y="1090"/>
      <point x="649" y="1118"/>
    </contour>
  </outline>
</glyph>
<glyph name="uni1D95" format="2">
  <advance width="1329"/>
  <unicode hex="1D95"/>
  <outline>
    <contour>
      <point x="1266" y="-406" type="curve" smooth="yes"/>
      <point x="1317" y="-406"/>
      <point x="1370" y="-397"/>
      <point x="1397" y="-381" type="curve"/>
      <point x="1397" y="-240" type="line"/>
      <point x="1376" y="-248"/>
      <point x="1335" y="-258"/>
      <point x="1303" y="-258" type="curve" smooth="yes"/>
      <point x="1233" y="-258"/>
      <point x="1196" y="-223"/>
      <point x="1196" y="-127" type="curve" smooth="yes"/>
      <point x="1196" y="584" type="line"/>
      <point x="1042" y="584" type="line"/>
      <point x="1032" y="932"/>
      <point x="819" y="1118"/>
      <point x="514" y="1118" type="curve" smooth="yes"/>
      <point x="365" y="1118"/>
      <point x="266" y="1096"/>
      <point x="154" y="1047" type="curve"/>
      <point x="154" y="889" type="line"/>
      <point x="268" y="938"/>
      <point x="367" y="965"/>
      <point x="506" y="965" type="curve" smooth="yes"/>
      <point x="725" y="965"/>
      <point x="850" y="831"/>
      <point x="856" y="584" type="curve"/>
      <point x="104" y="584" type="line"/>
      <point x="104" y="475" type="line" smooth="yes"/>
      <point x="104" y="176"/>
      <point x="276" y="-20"/>
      <point x="557" y="-20" type="curve" smooth="yes"/>
      <point x="813" y="-20"/>
      <point x="995" y="150"/>
      <point x="1034" y="436" type="curve"/>
      <point x="1034" y="-129" type="line" smooth="yes"/>
      <point x="1034" y="-332"/>
      <point x="1130" y="-406"/>
    </contour>
    <contour>
      <point x="559" y="127" type="curve" smooth="yes"/>
      <point x="377" y="127"/>
      <point x="295" y="254"/>
      <point x="293" y="440" type="curve"/>
      <point x="852" y="440" type="line"/>
      <point x="834" y="244"/>
      <point x="731" y="127"/>
    </contour>
  </outline>
</glyph>
<glyph name="uni1D98" format="2">
  <advance width="528"/>
  <unicode hex="1D98"/>
  <outline>
    <contour>
      <point x="444" y="1567" type="curve" smooth="yes"/>
      <point x="299" y="1567"/>
      <point x="174" y="1493"/>
      <point x="174" y="1225" type="curve" smooth="yes"/>
      <point x="174" y="324" type="line" smooth="yes"/>
      <point x="174" y="162"/>
      <point x="131" y="127"/>
      <point x="47" y="127" type="curve" smooth="yes"/>
      <point x="10" y="127"/>
      <point x="-37" y="139"/>
      <point x="-59" y="150" type="curve"/>
      <point x="-59" y="-129" type="line" smooth="yes"/>
      <point x="-59" y="-332"/>
      <point x="37" y="-406"/>
      <point x="172" y="-406" type="curve" smooth="yes"/>
      <point x="223" y="-406"/>
      <point x="276" y="-397"/>
      <point x="303" y="-381" type="curve"/>
      <point x="303" y="-240" type="line"/>
      <point x="283" y="-248"/>
      <point x="242" y="-258"/>
      <point x="209" y="-258" type="curve" smooth="yes"/>
      <point x="139" y="-258"/>
      <point x="102" y="-223"/>
      <point x="102" y="-127" type="curve" smooth="yes"/>
      <point x="102" y="-18" type="line"/>
      <point x="236" y="-10"/>
      <point x="354" y="70"/>
      <point x="354" y="322" type="curve" smooth="yes"/>
      <point x="354" y="1223" type="line"/>
      <point x="354" y="1384"/>
      <point x="397" y="1419"/>
      <point x="481" y="1419" type="curve" smooth="yes"/>
      <point x="518" y="1419"/>
      <point x="565" y="1407"/>
      <point x="588" y="1397" type="curve"/>
      <point x="588" y="1534" type="line"/>
      <point x="559" y="1552"/>
      <point x="504" y="1567"/>
    </contour>
  </outline>
</glyph>
<glyph name="suspensionmark" format="2">
  <unicode hex="1DC3"/>
  <anchor x="-4" y="1098" name="_top"/>
  <anchor x="0" y="1495" name="top"/>
  <outline>
    <contour>
      <point x="356" y="1364" type="curve" smooth="yes"/>
      <point x="369" y="1364" type="line"/>
      <point x="369" y="1491" type="line"/>
      <point x="352" y="1491" type="line" smooth="yes"/>
      <point x="121" y="1491"/>
      <point x="-27" y="1378"/>
      <point x="-139" y="1378" type="curve" smooth="yes"/>
      <point x="-209" y="1378"/>
      <point x="-246" y="1417"/>
      <point x="-246" y="1495" type="curve"/>
      <point x="-377" y="1495" type="line"/>
      <point x="-377" y="1464" type="line" smooth="yes"/>
      <point x="-377" y="1319"/>
      <point x="-289" y="1245"/>
      <point x="-143" y="1245" type="curve" smooth="yes"/>
      <point x="12" y="1245"/>
      <point x="147" y="1364"/>
    </contour>
  </outline>
</glyph>
<glyph name="ogonekabove" format="2">
  <unicode hex="1DCE"/>
  <anchor x="-569" y="1098" name="_top"/>
  <anchor x="-565" y="1593" name="top"/>
  <outline>
    <contour>
      <point x="-545" y="1368" type="curve" smooth="yes"/>
      <point x="-545" y="1284"/>
      <point x="-598" y="1214"/>
      <point x="-690" y="1128" type="curve"/>
      <point x="-600" y="1100" type="line"/>
      <point x="-481" y="1182"/>
      <point x="-401" y="1282"/>
      <point x="-401" y="1393" type="curve" smooth="yes"/>
      <point x="-401" y="1518"/>
      <point x="-483" y="1593"/>
      <point x="-610" y="1593" type="curve" smooth="yes"/>
      <point x="-664" y="1593"/>
      <point x="-702" y="1585"/>
      <point x="-735" y="1575" type="curve"/>
      <point x="-735" y="1454" type="line"/>
      <point x="-713" y="1462"/>
      <point x="-678" y="1468"/>
      <point x="-641" y="1468" type="curve" smooth="yes"/>
      <point x="-580" y="1468"/>
      <point x="-545" y="1436"/>
    </contour>
  </outline>
</glyph>
<glyph name="uni1FCF" format="2">
  <advance width="1214"/>
  <unicode hex="1FCF"/>
  <anchor x="594" y="1098" name="_top"/>
  <anchor x="612" y="1761" name="top"/>
  <outline>
    <contour>
      <point x="242" y="1526" type="curve"/>
      <point x="336" y="1526" type="line"/>
      <point x="354" y="1587"/>
      <point x="383" y="1626"/>
      <point x="449" y="1626" type="curve" smooth="yes"/>
      <point x="539" y="1626"/>
      <point x="645" y="1528"/>
      <point x="760" y="1528" type="curve" smooth="yes"/>
      <point x="889" y="1528"/>
      <point x="956" y="1620"/>
      <point x="973" y="1761" type="curve"/>
      <point x="881" y="1761" type="line"/>
      <point x="860" y="1700"/>
      <point x="831" y="1661"/>
      <point x="768" y="1661" type="curve" smooth="yes"/>
      <point x="682" y="1661"/>
      <point x="578" y="1759"/>
      <point x="457" y="1759" type="curve" smooth="yes"/>
      <point x="328" y="1759"/>
      <point x="258" y="1669"/>
    </contour>
    <contour>
      <point x="483" y="1200" type="line"/>
      <point x="649" y="1214"/>
      <point x="709" y="1282"/>
      <point x="709" y="1395" type="curve" smooth="yes"/>
      <point x="709" y="1470"/>
      <point x="666" y="1501"/>
      <point x="604" y="1501" type="curve" smooth="yes"/>
      <point x="535" y="1501"/>
      <point x="498" y="1468"/>
      <point x="498" y="1413" type="curve" smooth="yes"/>
      <point x="498" y="1348"/>
      <point x="545" y="1327"/>
      <point x="604" y="1327" type="curve" smooth="yes"/>
      <point x="604" y="1298"/>
      <point x="575" y="1272"/>
      <point x="483" y="1268" type="curve"/>
    </contour>
  </outline>
</glyph>
<glyph name="uni1FFE" format="2">
  <advance width="528"/>
  <unicode hex="1FFE"/>
  <anchor x="279" y="1098" name="_top"/>
  <anchor x="274" y="1585" name="top"/>
  <outline>
    <contour>
      <point x="383" y="1221" type="curve"/>
      <point x="383" y="1296" type="line"/>
      <point x="291" y="1303"/>
      <point x="262" y="1346"/>
      <point x="262" y="1391" type="curve" smooth="yes"/>
      <point x="322" y="1391"/>
      <point x="369" y="1421"/>
      <point x="369" y="1487" type="curve" smooth="yes"/>
      <point x="369" y="1556"/>
      <point x="322" y="1585"/>
      <point x="262" y="1585" type="curve" smooth="yes"/>
      <point x="197" y="1585"/>
      <point x="158" y="1534"/>
      <point x="158" y="1464" type="curve" smooth="yes"/>
      <point x="158" y="1319"/>
      <point x="223" y="1237"/>
    </contour>
  </outline>
</glyph>
<glyph name="quotereversed" format="2">
  <advance width="358"/>
  <unicode hex="201B"/>
  <outline>
    <contour>
      <point x="233" y="1462" type="curve"/>
      <point x="39" y="1462" type="line"/>
      <point x="25" y="1440" type="line"/>
      <point x="61" y="1296"/>
      <point x="135" y="1106"/>
      <point x="203" y="961" type="curve"/>
      <point x="336" y="961" type="line"/>
      <point x="297" y="1114"/>
      <point x="254" y="1319"/>
    </contour>
  </outline>
</glyph>
<glyph name="daggerdbl" format="2">
  <advance width="1049"/>
  <unicode hex="2021"/>
  <outline>
    <contour>
      <point x="575" y="494" type="line"/>
      <point x="618" y="786" type="line"/>
      <point x="575" y="1063" type="line"/>
      <point x="926" y="1032" type="line"/>
      <point x="926" y="1206" type="line"/>
      <point x="575" y="1176" type="line"/>
      <point x="625" y="1556" type="line"/>
      <point x="418" y="1556" type="line"/>
      <point x="467" y="1176" type="line"/>
      <point x="123" y="1206" type="line"/>
      <point x="123" y="1032" type="line"/>
      <point x="467" y="1063" type="line"/>
      <point x="424" y="786" type="line"/>
      <point x="467" y="494" type="line"/>
      <point x="123" y="524" type="line"/>
      <point x="123" y="350" type="line"/>
      <point x="467" y="379" type="line"/>
      <point x="418" y="0" type="line"/>
      <point x="625" y="0" type="line"/>
      <point x="575" y="379" type="line"/>
      <point x="926" y="350" type="line"/>
      <point x="926" y="524" type="line"/>
    </contour>
  </outline>
</glyph>
<glyph name="pertenthousand" format="2">
  <advance width="3162"/>
  <unicode hex="2031"/>
  <outline>
    <contour>
      <point x="399" y="1483" type="curve" smooth="yes"/>
      <point x="193" y="1483"/>
      <point x="92" y="1319"/>
      <point x="92" y="1026" type="curve" smooth="yes"/>
      <point x="92" y="735"/>
      <point x="203" y="565"/>
      <point x="399" y="565" type="curve" smooth="yes"/>
      <point x="610" y="565"/>
      <point x="715" y="729"/>
      <point x="715" y="1026" type="curve" smooth="yes"/>
      <point x="715" y="1290"/>
      <point x="621" y="1483"/>
    </contour>
    <contour>
      <point x="401" y="1348" type="curve" smooth="yes"/>
      <point x="504" y="1348"/>
      <point x="557" y="1241"/>
      <point x="557" y="1026" type="curve" smooth="yes"/>
      <point x="557" y="807"/>
      <point x="506" y="700"/>
      <point x="401" y="700" type="curve" smooth="yes"/>
      <point x="297" y="700"/>
      <point x="252" y="809"/>
      <point x="252" y="1026" type="curve" smooth="yes"/>
      <point x="252" y="1241"/>
      <point x="297" y="1348"/>
    </contour>
    <contour>
      <point x="1346" y="1462" type="line"/>
      <point x="1192" y="1462" type="line"/>
      <point x="381" y="0" type="line"/>
      <point x="535" y="0" type="line"/>
    </contour>
    <contour>
      <point x="2755" y="897" type="curve" smooth="yes"/>
      <point x="2548" y="897"/>
      <point x="2445" y="735"/>
      <point x="2445" y="440" type="curve" smooth="yes"/>
      <point x="2445" y="176"/>
      <point x="2537" y="-20"/>
      <point x="2755" y="-20" type="curve" smooth="yes"/>
      <point x="2966" y="-20"/>
      <point x="3068" y="143"/>
      <point x="3068" y="440" type="curve" smooth="yes"/>
      <point x="3068" y="702"/>
      <point x="2972" y="897"/>
    </contour>
    <contour>
      <point x="2755" y="760" type="curve" smooth="yes"/>
      <point x="2859" y="760"/>
      <point x="2910" y="653"/>
      <point x="2910" y="438" type="curve" smooth="yes"/>
      <point x="2910" y="221"/>
      <point x="2859" y="115"/>
      <point x="2755" y="115" type="curve" smooth="yes"/>
      <point x="2650" y="115"/>
      <point x="2605" y="223"/>
      <point x="2605" y="438" type="curve" smooth="yes"/>
      <point x="2605" y="655"/>
      <point x="2650" y="760"/>
    </contour>
    <contour>
      <point x="1321" y="897" type="curve" smooth="yes"/>
      <point x="1116" y="897"/>
      <point x="1014" y="735"/>
      <point x="1014" y="440" type="curve" smooth="yes"/>
      <point x="1014" y="176"/>
      <point x="1106" y="-20"/>
      <point x="1321" y="-20" type="curve" smooth="yes"/>
      <point x="1532" y="-20"/>
      <point x="1636" y="143"/>
      <point x="1636" y="440" type="curve" smooth="yes"/>
      <point x="1636" y="702"/>
      <point x="1540" y="897"/>
    </contour>
    <contour>
      <point x="1321" y="760" type="curve" smooth="yes"/>
      <point x="1423" y="760"/>
      <point x="1477" y="653"/>
      <point x="1477" y="438" type="curve" smooth="yes"/>
      <point x="1477" y="221"/>
      <point x="1423" y="115"/>
      <point x="1321" y="115" type="curve" smooth="yes"/>
      <point x="1217" y="115"/>
      <point x="1171" y="223"/>
      <point x="1171" y="438" type="curve" smooth="yes"/>
      <point x="1171" y="655"/>
      <point x="1217" y="760"/>
    </contour>
    <contour>
      <point x="2038" y="897" type="curve" smooth="yes"/>
      <point x="1833" y="897"/>
      <point x="1731" y="735"/>
      <point x="1731" y="440" type="curve" smooth="yes"/>
      <point x="1731" y="176"/>
      <point x="1823" y="-20"/>
      <point x="2038" y="-20" type="curve" smooth="yes"/>
      <point x="2249" y="-20"/>
      <point x="2353" y="143"/>
      <point x="2353" y="440" type="curve" smooth="yes"/>
      <point x="2353" y="702"/>
      <point x="2257" y="897"/>
    </contour>
    <contour>
      <point x="2038" y="760" type="curve" smooth="yes"/>
      <point x="2140" y="760"/>
      <point x="2193" y="653"/>
      <point x="2193" y="438" type="curve" smooth="yes"/>
      <point x="2193" y="221"/>
      <point x="2140" y="115"/>
      <point x="2038" y="115" type="curve" smooth="yes"/>
      <point x="1933" y="115"/>
      <point x="1888" y="223"/>
      <point x="1888" y="438" type="curve" smooth="yes"/>
      <point x="1888" y="655"/>
      <point x="1933" y="760"/>
    </contour>
  </outline>
</glyph>
<glyph name="guilsinglleft" format="2">
  <advance width="635"/>
  <unicode hex="2039"/>
  <outline>
    <contour>
      <point x="82" y="553" type="line"/>
      <point x="82" y="526" type="line"/>
      <point x="426" y="115" type="line"/>
      <point x="555" y="190" type="line"/>
      <point x="268" y="541" type="line"/>
      <point x="555" y="891" type="line"/>
      <point x="426" y="965" type="line"/>
    </contour>
  </outline>
</glyph>
<glyph name="uni205E" format="2">
  <advance width="549"/>
  <unicode hex="205E"/>
  <outline>
    <contour>
      <point x="274" y="1206" type="curve" smooth="yes"/>
      <point x="344" y="1206"/>
      <point x="401" y="1247"/>
      <point x="401" y="1346" type="curve" smooth="yes"/>
      <point x="401" y="1448"/>
      <point x="344" y="1485"/>
      <point x="274" y="1485" type="curve" smooth="yes"/>
      <point x="203" y="1485"/>
      <point x="147" y="1448"/>
      <point x="147" y="1346" type="curve" smooth="yes"/>
      <point x="147" y="1247"/>
      <point x="203" y="1206"/>
    </contour>
    <contour>
      <point x="274" y="-29" type="curve" smooth="yes"/>
      <point x="344" y="-29"/>
      <point x="401" y="12"/>
      <point x="401" y="111" type="curve" smooth="yes"/>
      <point x="401" y="213"/>
      <point x="344" y="250"/>
      <point x="274" y="250" type="curve" smooth="yes"/>
      <point x="203" y="250"/>
      <point x="147" y="213"/>
      <point x="147" y="111" type="curve" smooth="yes"/>
      <point x="147" y="12"/>
      <point x="203" y="-29"/>
    </contour>
    <contour>
      <point x="274" y="383" type="curve" smooth="yes"/>
      <point x="344" y="383"/>
      <point x="401" y="424"/>
      <point x="401" y="522" type="curve" smooth="yes"/>
      <point x="401" y="625"/>
      <point x="344" y="662"/>
      <point x="274" y="662" type="curve" smooth="yes"/>
      <point x="203" y="662"/>
      <point x="147" y="625"/>
      <point x="147" y="522" type="curve" smooth="yes"/>
      <point x="147" y="424"/>
      <point x="203" y="383"/>
    </contour>
    <contour>
      <point x="274" y="795" type="curve" smooth="yes"/>
      <point x="344" y="795"/>
      <point x="401" y="836"/>
      <point x="401" y="934" type="curve" smooth="yes"/>
      <point x="401" y="1036"/>
      <point x="344" y="1073"/>
      <point x="274" y="1073" type="curve" smooth="yes"/>
      <point x="203" y="1073"/>
      <point x="147" y="1036"/>
      <point x="147" y="934" type="curve" smooth="yes"/>
      <point x="147" y="836"/>
      <point x="203" y="795"/>
    </contour>
  </outline>
</glyph>
<glyph name="eightsuperior" format="2">
  <advance width="717"/>
  <unicode hex="2078"/>
  <outline>
    <contour>
      <point x="360" y="1745" type="curve" smooth="yes"/>
      <point x="209" y="1745"/>
      <point x="78" y="1665"/>
      <point x="78" y="1518" type="curve" smooth="yes"/>
      <point x="78" y="1413"/>
      <point x="125" y="1364"/>
      <point x="209" y="1311" type="curve"/>
      <point x="121" y="1264"/>
      <point x="51" y="1194"/>
      <point x="51" y="1081" type="curve" smooth="yes"/>
      <point x="51" y="928"/>
      <point x="162" y="836"/>
      <point x="360" y="836" type="curve" smooth="yes"/>
      <point x="541" y="836"/>
      <point x="666" y="934"/>
      <point x="666" y="1087" type="curve" smooth="yes"/>
      <point x="666" y="1200"/>
      <point x="596" y="1272"/>
      <point x="489" y="1317" type="curve"/>
      <point x="571" y="1360"/>
      <point x="637" y="1423"/>
      <point x="637" y="1524" type="curve" smooth="yes"/>
      <point x="637" y="1673"/>
      <point x="510" y="1745"/>
    </contour>
    <contour>
      <point x="328" y="1255" type="curve"/>
      <point x="354" y="1245" type="line" smooth="yes"/>
      <point x="459" y="1210"/>
      <point x="524" y="1161"/>
      <point x="524" y="1081" type="curve" smooth="yes"/>
      <point x="524" y="1004"/>
      <point x="471" y="950"/>
      <point x="356" y="950" type="curve" smooth="yes"/>
      <point x="244" y="950"/>
      <point x="190" y="1004"/>
      <point x="190" y="1081" type="curve" smooth="yes"/>
      <point x="190" y="1159"/>
      <point x="238" y="1212"/>
    </contour>
    <contour>
      <point x="358" y="1632" type="curve" smooth="yes"/>
      <point x="444" y="1632"/>
      <point x="498" y="1591"/>
      <point x="498" y="1520" type="curve" smooth="yes"/>
      <point x="498" y="1444"/>
      <point x="442" y="1403"/>
      <point x="362" y="1372" type="curve"/>
      <point x="281" y="1405"/>
      <point x="219" y="1448"/>
      <point x="219" y="1520" type="curve" smooth="yes"/>
      <point x="219" y="1591"/>
      <point x="270" y="1632"/>
    </contour>
  </outline>
</glyph>
<glyph name="uni20BA" format="2">
  <advance width="1171"/>
  <unicode hex="20BA"/>
  <outline>
    <contour>
      <point x="430" y="-10" type="curve" smooth="yes"/>
      <point x="930" y="-10"/>
      <point x="1110" y="338"/>
      <point x="1110" y="717" type="curve"/>
      <point x="934" y="717" type="line"/>
      <point x="934" y="397"/>
      <point x="807" y="145"/>
      <point x="436" y="145" type="curve"/>
      <point x="436" y="727" type="line"/>
      <point x="858" y="874" type="line"/>
      <point x="858" y="1006" type="line"/>
      <point x="436" y="860" type="line"/>
      <point x="436" y="1022" type="line"/>
      <point x="858" y="1167" type="line"/>
      <point x="858" y="1300" type="line"/>
      <point x="436" y="1155" type="line"/>
      <point x="436" y="1462" type="line"/>
      <point x="260" y="1462" type="line"/>
      <point x="260" y="1094" type="line"/>
      <point x="41" y="1020" type="line"/>
      <point x="41" y="887" type="line"/>
      <point x="260" y="961" type="line"/>
      <point x="260" y="799" type="line"/>
      <point x="41" y="725" type="line"/>
      <point x="41" y="592" type="line"/>
      <point x="260" y="668" type="line"/>
      <point x="260" y="0" type="line"/>
      <point x="301" y="-6"/>
      <point x="358" y="-10"/>
    </contour>
  </outline>
</glyph>
<glyph name="ruble" format="2">
  <advance width="1192"/>
  <unicode hex="20BD"/>
  <outline>
    <contour>
      <point x="199" y="0" type="line"/>
      <point x="383" y="0" type="line"/>
      <point x="383" y="594" type="line"/>
      <point x="555" y="594" type="line"/>
      <point x="920" y="594"/>
      <point x="1112" y="760"/>
      <point x="1112" y="1038" type="curve"/>
      <point x="1112" y="1315"/>
      <point x="942" y="1462"/>
      <point x="584" y="1462" type="curve"/>
      <point x="199" y="1462" type="line"/>
    </contour>
    <contour>
      <point x="20" y="279" type="line"/>
      <point x="721" y="279" type="line"/>
      <point x="721" y="412" type="line"/>
      <point x="20" y="412" type="line"/>
    </contour>
    <contour>
      <point x="20" y="594" type="line"/>
      <point x="489" y="594" type="line"/>
      <point x="489" y="750" type="line"/>
      <point x="20" y="750" type="line"/>
    </contour>
    <contour>
      <point x="383" y="750" type="line"/>
      <point x="383" y="1307" type="line"/>
      <point x="567" y="1307" type="line"/>
      <point x="809" y="1307"/>
      <point x="922" y="1219"/>
      <point x="922" y="1032" type="curve" smooth="yes"/>
      <point x="922" y="819"/>
      <point x="776" y="750"/>
      <point x="528" y="750" type="curve"/>
    </contour>
  </outline>
</glyph>
<glyph name="uni20BF" format="2">
  <advance width="1171"/>
  <unicode hex="20BF"/>
  <outline>
    <contour>
      <point x="662" y="1362" type="line"/>
      <point x="793" y="1362" type="line"/>
      <point x="793" y="1669" type="line"/>
      <point x="662" y="1669" type="line"/>
    </contour>
    <contour>
      <point x="387" y="1362" type="line"/>
      <point x="518" y="1362" type="line"/>
      <point x="518" y="1669" type="line"/>
      <point x="387" y="1669" type="line"/>
    </contour>
    <contour>
      <point x="662" y="-201" type="line"/>
      <point x="793" y="-201" type="line"/>
      <point x="793" y="106" type="line"/>
      <point x="662" y="106" type="line"/>
    </contour>
    <contour>
      <point x="387" y="-201" type="line"/>
      <point x="518" y="-201" type="line"/>
      <point x="518" y="106" type="line"/>
      <point x="387" y="106" type="line"/>
    </contour>
    <contour>
      <point x="199" y="1462" type="line"/>
      <point x="199" y="0" type="line"/>
      <point x="631" y="0" type="line" smooth="yes"/>
      <point x="920" y="0"/>
      <point x="1098" y="150"/>
      <point x="1098" y="416" type="curve" smooth="yes"/>
      <point x="1098" y="643"/>
      <point x="973" y="735"/>
      <point x="811" y="766" type="curve"/>
      <point x="811" y="776" type="line"/>
      <point x="969" y="809"/>
      <point x="1055" y="928"/>
      <point x="1055" y="1100" type="curve" smooth="yes"/>
      <point x="1055" y="1366"/>
      <point x="877" y="1462"/>
      <point x="535" y="1462" type="curve" smooth="yes"/>
    </contour>
    <contour>
      <point x="383" y="840" type="line"/>
      <point x="383" y="1305" type="line"/>
      <point x="543" y="1305" type="line" smooth="yes"/>
      <point x="766" y="1305"/>
      <point x="864" y="1239"/>
      <point x="864" y="1079" type="curve" smooth="yes"/>
      <point x="864" y="922"/>
      <point x="795" y="840"/>
      <point x="571" y="840" type="curve" smooth="yes"/>
    </contour>
    <contour>
      <point x="383" y="686" type="line"/>
      <point x="582" y="686" type="line" smooth="yes"/>
      <point x="821" y="686"/>
      <point x="901" y="584"/>
      <point x="901" y="430" type="curve" smooth="yes"/>
      <point x="901" y="266"/>
      <point x="823" y="156"/>
      <point x="596" y="156" type="curve" smooth="yes"/>
      <point x="383" y="156" type="line"/>
    </contour>
  </outline>
</glyph>
<glyph name="ounce" format="2">
  <advance width="1100"/>
  <unicode hex="2125"/>
  <outline>
    <contour>
      <point x="938" y="944" type="line"/>
      <point x="88" y="944" type="line"/>
      <point x="88" y="791" type="line"/>
      <point x="680" y="791" type="line"/>
      <point x="229" y="373" type="line"/>
      <point x="229" y="240" type="line"/>
      <point x="365" y="240" type="line" smooth="yes"/>
      <point x="672" y="240"/>
      <point x="803" y="145"/>
      <point x="803" y="-31" type="curve" smooth="yes"/>
      <point x="803" y="-217"/>
      <point x="682" y="-340"/>
      <point x="434" y="-340" type="curve" smooth="yes"/>
      <point x="311" y="-340"/>
      <point x="180" y="-315"/>
      <point x="53" y="-258" type="curve"/>
      <point x="53" y="-422" type="line"/>
      <point x="162" y="-469"/>
      <point x="293" y="-492"/>
      <point x="444" y="-492" type="curve" smooth="yes"/>
      <point x="784" y="-496"/>
      <point x="991" y="-305"/>
      <point x="987" y="-37" type="curve" smooth="yes"/>
      <point x="987" y="225"/>
      <point x="819" y="369"/>
      <point x="455" y="377" type="curve"/>
      <point x="938" y="821" type="line"/>
    </contour>
    <contour>
      <point x="457" y="883" type="line"/>
      <point x="938" y="1358" type="line"/>
      <point x="938" y="1481" type="line"/>
      <point x="88" y="1481" type="line"/>
      <point x="88" y="1325" type="line"/>
      <point x="686" y="1325" type="line"/>
      <point x="260" y="901" type="line"/>
    </contour>
  </outline>
</glyph>
<glyph name="uni214D" format="2">
  <advance width="1503"/>
  <unicode hex="214D"/>
  <outline>
    <contour>
      <point x="684" y="758" type="line"/>
      <point x="412" y="1462" type="line"/>
      <point x="283" y="1462" type="line"/>
      <point x="10" y="758" type="line"/>
      <point x="150" y="758" type="line"/>
      <point x="223" y="958" type="line"/>
      <point x="471" y="958" type="line"/>
      <point x="543" y="758" type="line"/>
    </contour>
    <contour>
      <point x="436" y="1065" type="line"/>
      <point x="258" y="1065" type="line"/>
      <point x="328" y="1257" type="line" smooth="yes"/>
      <point x="332" y="1272"/>
      <point x="340" y="1294"/>
      <point x="346" y="1327" type="curve"/>
      <point x="356" y="1290"/>
      <point x="360" y="1276"/>
      <point x="367" y="1260" type="curve" smooth="yes"/>
    </contour>
    <contour>
      <point x="477" y="0" type="line"/>
      <point x="1280" y="1462" type="line"/>
      <point x="1130" y="1462" type="line"/>
      <point x="328" y="0" type="line"/>
    </contour>
    <contour>
      <point x="1190" y="713" type="curve" smooth="yes"/>
      <point x="1018" y="713"/>
      <point x="940" y="629"/>
      <point x="940" y="518" type="curve" smooth="yes"/>
      <point x="940" y="422"/>
      <point x="983" y="360"/>
      <point x="1137" y="307" type="curve" smooth="yes"/>
      <point x="1282" y="258"/>
      <point x="1290" y="229"/>
      <point x="1290" y="184" type="curve" smooth="yes"/>
      <point x="1290" y="125"/>
      <point x="1227" y="106"/>
      <point x="1135" y="106" type="curve" smooth="yes"/>
      <point x="1067" y="106"/>
      <point x="969" y="129"/>
      <point x="915" y="156" type="curve"/>
      <point x="915" y="31" type="line"/>
      <point x="963" y="6"/>
      <point x="1055" y="-8"/>
      <point x="1130" y="-8" type="curve" smooth="yes"/>
      <point x="1317" y="-8"/>
      <point x="1430" y="70"/>
      <point x="1430" y="188" type="curve" smooth="yes"/>
      <point x="1430" y="299"/>
      <point x="1384" y="356"/>
      <point x="1227" y="410" type="curve" smooth="yes"/>
      <point x="1116" y="446"/>
      <point x="1079" y="463"/>
      <point x="1079" y="526" type="curve" smooth="yes"/>
      <point x="1079" y="580"/>
      <point x="1114" y="598"/>
      <point x="1190" y="598" type="curve" smooth="yes"/>
      <point x="1245" y="598"/>
      <point x="1325" y="580"/>
      <point x="1378" y="557" type="curve"/>
      <point x="1413" y="666" type="line"/>
      <point x="1356" y="692"/>
      <point x="1268" y="713"/>
    </contour>
  </outline>
</glyph>
<glyph name="uni2C61" format="2">
  <advance width="528"/>
  <unicode hex="2C61"/>
  <anchor x="264" y="0" name="bottom"/>
  <anchor x="264" y="1556" name="top"/>
  <outline>
    <contour>
      <point x="174" y="0" type="line"/>
      <point x="354" y="0" type="line"/>
      <point x="354" y="508" type="line"/>
      <point x="508" y="508" type="line"/>
      <point x="508" y="653" type="line"/>
      <point x="354" y="653" type="line"/>
      <point x="354" y="836" type="line"/>
      <point x="508" y="836" type="line"/>
      <point x="508" y="981" type="line"/>
      <point x="354" y="981" type="line"/>
      <point x="354" y="1556" type="line"/>
      <point x="174" y="1556" type="line"/>
      <point x="174" y="981" type="line"/>
      <point x="20" y="981" type="line"/>
      <point x="20" y="836" type="line"/>
      <point x="174" y="836" type="line"/>
      <point x="174" y="653" type="line"/>
      <point x="20" y="653" type="line"/>
      <point x="20" y="508" type="line"/>
      <point x="174" y="508" type="line"/>
    </contour>
  </outline>
</glyph>
<glyph name="uni2C68" format="2">
  <advance width="1290"/>
  <unicode hex="2C68"/>
  <anchor x="635" y="-381" name="bottom"/>
  <anchor x="266" y="1556" name="top"/>
  <outline>
    <contour>
      <point x="1079" y="152" type="line"/>
      <point x="942" y="0" type="line"/>
      <point x="1083" y="0" type="line"/>
      <point x="1083" y="-381" type="line"/>
      <point x="1262" y="-381" type="line"/>
      <point x="1262" y="152" type="line"/>
    </contour>
    <component base="h"/>
  </outline>
</glyph>
<glyph name="uni2C6B" format="2">
  <advance width="1171"/>
  <unicode hex="2C6B"/>
  <anchor x="586" y="-385" name="bottom"/>
  <anchor x="586" y="1462" name="top"/>
  <outline>
    <contour>
      <point x="915" y="-385" type="line"/>
      <point x="1092" y="-385" type="line"/>
      <point x="1092" y="164" type="line"/>
      <point x="301" y="164" type="line"/>
      <point x="1071" y="1323" type="line"/>
      <point x="1071" y="1462" type="line"/>
      <point x="102" y="1462" type="line"/>
      <point x="102" y="1298" type="line"/>
      <point x="848" y="1298" type="line"/>
      <point x="78" y="139" type="line"/>
      <point x="78" y="0" type="line"/>
      <point x="915" y="0" type="line"/>
    </contour>
  </outline>
</glyph>
<glyph name="uni2C72" format="2">
  <advance width="1989"/>
  <unicode hex="2C72"/>
  <anchor x="975" y="0" name="bottom"/>
  <anchor x="975" y="1462" name="top"/>
  <outline>
    <contour>
      <point x="1866" y="1475" type="curve" smooth="yes"/>
      <point x="1724" y="1475"/>
      <point x="1659" y="1403"/>
      <point x="1618" y="1237" type="curve" smooth="yes"/>
      <point x="1450" y="571" type="line" smooth="yes"/>
      <point x="1417" y="442"/>
      <point x="1391" y="322"/>
      <point x="1378" y="221" type="curve"/>
      <point x="1364" y="315"/>
      <point x="1335" y="446"/>
      <point x="1298" y="573" type="curve" smooth="yes"/>
      <point x="1040" y="1462" type="line"/>
      <point x="850" y="1462" type="line"/>
      <point x="592" y="580" type="line" smooth="yes"/>
      <point x="557" y="459"/>
      <point x="528" y="328"/>
      <point x="514" y="221" type="curve"/>
      <point x="500" y="324"/>
      <point x="477" y="442"/>
      <point x="444" y="569" type="curve" smooth="yes"/>
      <point x="217" y="1462" type="line"/>
      <point x="25" y="1462" type="line"/>
      <point x="412" y="0" type="line"/>
      <point x="598" y="0" type="line"/>
      <point x="874" y="952" type="line" smooth="yes"/>
      <point x="911" y="1077"/>
      <point x="940" y="1210"/>
      <point x="944" y="1247" type="curve"/>
      <point x="950" y="1210"/>
      <point x="983" y="1075"/>
      <point x="1018" y="958" type="curve" smooth="yes"/>
      <point x="1292" y="0" type="line"/>
      <point x="1479" y="0" type="line"/>
      <point x="1774" y="1167" type="line" smooth="yes"/>
      <point x="1800" y="1274"/>
      <point x="1823" y="1321"/>
      <point x="1894" y="1321" type="curve" smooth="yes"/>
      <point x="1915" y="1321"/>
      <point x="1944" y="1317"/>
      <point x="1960" y="1311" type="curve"/>
      <point x="1960" y="1460" type="line"/>
      <point x="1937" y="1468"/>
      <point x="1903" y="1475"/>
    </contour>
  </outline>
</glyph>
<glyph name="turnedrtail" format="2">
  <advance width="850"/>
  <unicode hex="2C79"/>
  <anchor x="426" y="0" name="bottom"/>
  <anchor x="426" y="1567" name="top"/>
  <outline>
    <contour>
      <point x="676" y="0" type="line"/>
      <point x="676" y="1227" type="line"/>
      <point x="676" y="1470"/>
      <point x="565" y="1567"/>
      <point x="346" y="1567" type="curve" smooth="yes"/>
      <point x="276" y="1567"/>
      <point x="190" y="1552"/>
      <point x="152" y="1536" type="curve"/>
      <point x="182" y="1397" type="line"/>
      <point x="227" y="1409"/>
      <point x="274" y="1417"/>
      <point x="328" y="1417" type="curve" smooth="yes"/>
      <point x="455" y="1417"/>
      <point x="496" y="1348"/>
      <point x="496" y="1214" type="curve"/>
      <point x="496" y="512" type="line"/>
      <point x="496" y="295"/>
      <point x="369" y="147"/>
      <point x="182" y="147" type="curve" smooth="yes"/>
      <point x="141" y="147"/>
      <point x="96" y="154"/>
      <point x="61" y="162" type="curve"/>
      <point x="41" y="-8" type="line"/>
      <point x="82" y="-16"/>
      <point x="131" y="-20"/>
      <point x="170" y="-20" type="curve" smooth="yes"/>
      <point x="324" y="-20"/>
      <point x="426" y="59"/>
      <point x="500" y="193" type="curve"/>
      <point x="510" y="193" type="line"/>
      <point x="535" y="0" type="line"/>
    </contour>
  </outline>
</glyph>
<glyph name="dottedrightpointingangle" format="2">
  <advance width="1169"/>
  <unicode hex="2E16"/>
  <outline>
    <contour>
      <point x="109" y="274" type="line"/>
      <point x="1063" y="705" type="line"/>
      <point x="1063" y="782" type="line"/>
      <point x="109" y="1247" type="line"/>
      <point x="109" y="1126" type="line"/>
      <point x="903" y="745" type="line"/>
      <point x="109" y="395" type="line"/>
    </contour>
    <contour>
      <point x="436" y="1321" type="curve" smooth="yes"/>
      <point x="436" y="1255"/>
      <point x="475" y="1212"/>
      <point x="532" y="1212" type="curve" smooth="yes"/>
      <point x="594" y="1212"/>
      <point x="631" y="1255"/>
      <point x="631" y="1321" type="curve" smooth="yes"/>
      <point x="631" y="1386"/>
      <point x="594" y="1430"/>
      <point x="532" y="1430" type="curve" smooth="yes"/>
      <point x="475" y="1430"/>
      <point x="436" y="1386"/>
    </contour>
    <contour>
      <point x="436" y="205" type="curve" smooth="yes"/>
      <point x="436" y="137"/>
      <point x="475" y="96"/>
      <point x="532" y="96" type="curve" smooth="yes"/>
      <point x="594" y="96"/>
      <point x="631" y="137"/>
      <point x="631" y="205" type="curve" smooth="yes"/>
      <point x="631" y="274"/>
      <point x="588" y="311"/>
      <point x="532" y="311" type="curve" smooth="yes"/>
      <point x="479" y="311"/>
      <point x="436" y="274"/>
    </contour>
  </outline>
</glyph>
<glyph name="uniA64D" format="2">
  <advance width="1839"/>
  <unicode hex="A64D"/>
  <outline>
    <contour>
      <point x="590" y="-20" type="curve" smooth="yes"/>
      <point x="743" y="-20"/>
      <point x="850" y="37"/>
      <point x="926" y="131" type="curve"/>
      <point x="999" y="39"/>
      <point x="1108" y="-20"/>
      <point x="1262" y="-20" type="curve" smooth="yes"/>
      <point x="1552" y="-20"/>
      <point x="1733" y="182"/>
      <point x="1733" y="543" type="curve" smooth="yes"/>
      <point x="1733" y="913"/>
      <point x="1567" y="1120"/>
      <point x="1294" y="1120" type="curve" smooth="yes"/>
      <point x="1200" y="1120"/>
      <point x="1124" y="1096"/>
      <point x="1057" y="1057" type="curve"/>
      <point x="1120" y="920" type="line"/>
      <point x="1184" y="950"/>
      <point x="1241" y="969"/>
      <point x="1292" y="969" type="curve" smooth="yes"/>
      <point x="1458" y="969"/>
      <point x="1546" y="821"/>
      <point x="1546" y="545" type="curve" smooth="yes"/>
      <point x="1546" y="289"/>
      <point x="1438" y="131"/>
      <point x="1253" y="131" type="curve" smooth="yes"/>
      <point x="1159" y="131"/>
      <point x="1092" y="162"/>
      <point x="1016" y="242" type="curve"/>
      <point x="1016" y="561" type="line"/>
      <point x="836" y="561" type="line"/>
      <point x="836" y="240" type="line"/>
      <point x="760" y="162"/>
      <point x="694" y="131"/>
      <point x="602" y="131" type="curve" smooth="yes"/>
      <point x="418" y="131"/>
      <point x="305" y="289"/>
      <point x="305" y="545" type="curve" smooth="yes"/>
      <point x="305" y="821"/>
      <point x="391" y="969"/>
      <point x="557" y="969" type="curve" smooth="yes"/>
      <point x="610" y="969"/>
      <point x="666" y="950"/>
      <point x="731" y="920" type="curve"/>
      <point x="793" y="1057" type="line"/>
      <point x="725" y="1096"/>
      <point x="649" y="1120"/>
      <point x="557" y="1120" type="curve" smooth="yes"/>
      <point x="285" y="1120"/>
      <point x="119" y="913"/>
      <point x="119" y="543" type="curve" smooth="yes"/>
      <point x="119" y="182"/>
      <point x="297" y="-20"/>
    </contour>
  </outline>
</glyph>
<glyph name="uniA654" format="2">
  <advance width="2140"/>
  <unicode hex="A654"/>
  <outline>
    <contour>
      <point x="125" y="733" type="curve" smooth="yes"/>
      <point x="125" y="287"/>
      <point x="336" y="-20"/>
      <point x="762" y="-20" type="curve" smooth="yes"/>
      <point x="1171" y="-20"/>
      <point x="1382" y="268"/>
      <point x="1397" y="684" type="curve"/>
      <point x="1757" y="684" type="line"/>
      <point x="1757" y="0" type="line"/>
      <point x="1942" y="0" type="line"/>
      <point x="1942" y="1462" type="line"/>
      <point x="1757" y="1462" type="line"/>
      <point x="1757" y="844" type="line"/>
      <point x="1393" y="844" type="line"/>
      <point x="1360" y="1231"/>
      <point x="1145" y="1485"/>
      <point x="760" y="1485" type="curve" smooth="yes"/>
      <point x="334" y="1485"/>
      <point x="125" y="1178"/>
    </contour>
    <contour>
      <point x="1202" y="733" type="curve" smooth="yes"/>
      <point x="1202" y="377"/>
      <point x="1065" y="141"/>
      <point x="760" y="141" type="curve" smooth="yes"/>
      <point x="449" y="141"/>
      <point x="317" y="375"/>
      <point x="317" y="733" type="curve" smooth="yes"/>
      <point x="317" y="1087"/>
      <point x="453" y="1323"/>
      <point x="758" y="1323" type="curve" smooth="yes"/>
      <point x="1065" y="1323"/>
      <point x="1202" y="1085"/>
    </contour>
  </outline>
</glyph>
<glyph name="uniA667" format="2">
  <advance width="1892"/>
  <unicode hex="A667"/>
  <outline>
    <contour>
      <point x="1849" y="1100" type="line"/>
      <point x="1157" y="1100" type="line"/>
      <point x="1294" y="956" type="line"/>
      <point x="1849" y="956" type="line"/>
    </contour>
    <component base="afii10078"/>
  </outline>
</glyph>
<glyph name="uniA66B" format="2">
  <advance width="1292"/>
  <unicode hex="A66B"/>
  <outline>
    <contour>
      <point x="371" y="567" type="curve"/>
      <point x="371" y="494"/>
      <point x="410" y="457"/>
      <point x="471" y="457" type="curve" smooth="yes"/>
      <point x="532" y="457"/>
      <point x="571" y="494"/>
      <point x="571" y="567" type="curve" smooth="yes"/>
      <point x="571" y="645"/>
      <point x="532" y="682"/>
      <point x="471" y="682" type="curve" smooth="yes"/>
      <point x="410" y="682"/>
      <point x="371" y="645"/>
    </contour>
    <contour>
      <point x="719" y="567" type="curve"/>
      <point x="719" y="494"/>
      <point x="758" y="457"/>
      <point x="819" y="457" type="curve" smooth="yes"/>
      <point x="881" y="457"/>
      <point x="922" y="494"/>
      <point x="922" y="567" type="curve" smooth="yes"/>
      <point x="922" y="645"/>
      <point x="881" y="682"/>
      <point x="819" y="682" type="curve" smooth="yes"/>
      <point x="758" y="682"/>
      <point x="719" y="645"/>
    </contour>
    <contour>
      <point x="1184" y="551" type="curve"/>
      <point x="1184" y="899"/>
      <point x="981" y="1120"/>
      <point x="649" y="1120" type="curve" smooth="yes"/>
      <point x="301" y="1120"/>
      <point x="109" y="901"/>
      <point x="109" y="551" type="curve" smooth="yes"/>
      <point x="109" y="199"/>
      <point x="326" y="-20"/>
      <point x="643" y="-20" type="curve" smooth="yes"/>
      <point x="989" y="-20"/>
      <point x="1184" y="201"/>
    </contour>
    <contour>
      <point x="283" y="551" type="curve"/>
      <point x="283" y="821"/>
      <point x="403" y="969"/>
      <point x="645" y="969" type="curve" smooth="yes"/>
      <point x="895" y="969"/>
      <point x="1010" y="809"/>
      <point x="1010" y="551" type="curve" smooth="yes"/>
      <point x="1010" y="297"/>
      <point x="897" y="131"/>
      <point x="647" y="131" type="curve" smooth="yes"/>
      <point x="393" y="131"/>
      <point x="283" y="295"/>
    </contour>
  </outline>
</glyph>
<glyph name="uniA687" format="2">
  <advance width="1958"/>
  <unicode hex="A687"/>
  <outline>
    <contour>
      <point x="1053" y="1100" type="line"/>
      <point x="872" y="1100" type="line"/>
      <point x="872" y="707" type="line" smooth="yes"/>
      <point x="872" y="479"/>
      <point x="997" y="360"/>
      <point x="1221" y="360" type="curve" smooth="yes"/>
      <point x="1368" y="360"/>
      <point x="1489" y="406"/>
      <point x="1604" y="487" type="curve"/>
      <point x="1604" y="0" type="line"/>
      <point x="1784" y="0" type="line"/>
      <point x="1784" y="1100" type="line"/>
      <point x="1604" y="1100" type="line"/>
      <point x="1604" y="621" type="line"/>
      <point x="1491" y="541"/>
      <point x="1386" y="502"/>
      <point x="1266" y="502" type="curve" smooth="yes"/>
      <point x="1124" y="502"/>
      <point x="1053" y="567"/>
      <point x="1053" y="717" type="curve" smooth="yes"/>
    </contour>
    <contour>
      <point x="930" y="514" type="curve"/>
      <point x="891" y="627" type="line"/>
      <point x="772" y="543"/>
      <point x="666" y="502"/>
      <point x="541" y="502" type="curve" smooth="yes"/>
      <point x="399" y="502"/>
      <point x="328" y="567"/>
      <point x="328" y="717" type="curve" smooth="yes"/>
      <point x="328" y="1100" type="line"/>
      <point x="147" y="1100" type="line"/>
      <point x="147" y="707" type="line" smooth="yes"/>
      <point x="147" y="479"/>
      <point x="272" y="360"/>
      <point x="496" y="360" type="curve" smooth="yes"/>
      <point x="657" y="360"/>
      <point x="799" y="418"/>
    </contour>
  </outline>
</glyph>
<glyph name="uniA735" format="2">
  <advance width="1931"/>
  <unicode hex="A735"/>
  <anchor x="895" y="6" name="bottom"/>
  <anchor x="922" y="1133" name="top"/>
  <outline>
    <contour>
      <point x="584" y="1120" type="curve" smooth="yes"/>
      <point x="451" y="1120"/>
      <point x="319" y="1087"/>
      <point x="201" y="1030" type="curve"/>
      <point x="262" y="895" type="line"/>
      <point x="369" y="948"/>
      <point x="473" y="979"/>
      <point x="575" y="979" type="curve" smooth="yes"/>
      <point x="731" y="979"/>
      <point x="805" y="893"/>
      <point x="805" y="723" type="curve" smooth="yes"/>
      <point x="805" y="659" type="line"/>
      <point x="604" y="653" type="line" smooth="yes"/>
      <point x="268" y="645"/>
      <point x="94" y="528"/>
      <point x="94" y="307" type="curve" smooth="yes"/>
      <point x="94" y="94"/>
      <point x="227" y="-20"/>
      <point x="467" y="-20" type="curve" smooth="yes"/>
      <point x="657" y="-20"/>
      <point x="799" y="68"/>
      <point x="877" y="225" type="curve"/>
      <point x="981" y="225" type="line"/>
      <point x="981" y="731" type="line" smooth="yes"/>
      <point x="981" y="995"/>
      <point x="846" y="1120"/>
    </contour>
    <contour>
      <point x="803" y="539" type="line"/>
      <point x="803" y="438" type="line"/>
      <point x="803" y="240"/>
      <point x="676" y="123"/>
      <point x="483" y="123" type="curve" smooth="yes"/>
      <point x="356" y="123"/>
      <point x="281" y="184"/>
      <point x="281" y="303" type="curve" smooth="yes"/>
      <point x="281" y="465"/>
      <point x="412" y="524"/>
      <point x="641" y="532" type="curve" smooth="yes"/>
    </contour>
    <component base="o" xOffset="692"/>
  </outline>
</glyph>
<glyph name="uniA74D" format="2">
  <advance width="1380"/>
  <unicode hex="A74D"/>
  <outline>
    <contour>
      <point x="610" y="-20" type="curve" smooth="yes"/>
      <point x="936" y="-20"/>
      <point x="1116" y="205"/>
      <point x="1118" y="528" type="curve" smooth="yes"/>
      <point x="1118" y="559"/>
      <point x="1116" y="588"/>
      <point x="1112" y="616" type="curve"/>
      <point x="1135" y="608"/>
      <point x="1161" y="604"/>
      <point x="1192" y="604" type="curve" smooth="yes"/>
      <point x="1350" y="604"/>
      <point x="1438" y="729"/>
      <point x="1438" y="862" type="curve" smooth="yes"/>
      <point x="1438" y="1014"/>
      <point x="1343" y="1120"/>
      <point x="1186" y="1120" type="curve" smooth="yes"/>
      <point x="1075" y="1120"/>
      <point x="999" y="1063"/>
      <point x="967" y="985" type="curve"/>
      <point x="883" y="1069"/>
      <point x="766" y="1120"/>
      <point x="616" y="1120" type="curve" smooth="yes"/>
      <point x="289" y="1120"/>
      <point x="109" y="901"/>
      <point x="109" y="551" type="curve" smooth="yes"/>
      <point x="109" y="199"/>
      <point x="313" y="-20"/>
    </contour>
    <contour>
      <point x="614" y="131" type="curve" smooth="yes"/>
      <point x="401" y="131"/>
      <point x="295" y="295"/>
      <point x="295" y="551" type="curve"/>
      <point x="295" y="821"/>
      <point x="403" y="969"/>
      <point x="612" y="969" type="curve" smooth="yes"/>
      <point x="831" y="969"/>
      <point x="932" y="809"/>
      <point x="932" y="551" type="curve" smooth="yes"/>
      <point x="932" y="297"/>
      <point x="831" y="131"/>
    </contour>
    <contour>
      <point x="1186" y="721" type="curve" smooth="yes"/>
      <point x="1112" y="721"/>
      <point x="1071" y="776"/>
      <point x="1071" y="856" type="curve" smooth="yes"/>
      <point x="1071" y="934"/>
      <point x="1112" y="987"/>
      <point x="1188" y="987" type="curve" smooth="yes"/>
      <point x="1262" y="987"/>
      <point x="1307" y="936"/>
      <point x="1307" y="856" type="curve" smooth="yes"/>
      <point x="1307" y="768"/>
      <point x="1264" y="721"/>
    </contour>
  </outline>
</glyph>
<glyph name="uniA759" format="2">
  <advance width="1538"/>
  <unicode hex="A759"/>
  <outline>
    <contour>
      <point x="1425" y="664" type="curve" smooth="yes"/>
      <point x="1425" y="575"/>
      <point x="1391" y="516"/>
      <point x="1286" y="414" type="curve" smooth="yes"/>
      <point x="432" y="-424" type="line"/>
      <point x="510" y="-500" type="line"/>
      <point x="1362" y="340" type="line" smooth="yes"/>
      <point x="1479" y="457"/>
      <point x="1540" y="526"/>
      <point x="1540" y="672" type="curve" smooth="yes"/>
      <point x="1540" y="827"/>
      <point x="1425" y="932"/>
      <point x="1251" y="932" type="curve"/>
      <point x="1253" y="823" type="line"/>
      <point x="1364" y="823"/>
      <point x="1425" y="764"/>
    </contour>
    <component base="q"/>
  </outline>
</glyph>
<glyph name="uniA768" format="2">
  <advance width="1227"/>
  <unicode hex="A768"/>
  <outline>
    <contour>
      <point x="438" y="-338" type="line"/>
      <point x="438" y="-23" type="line"/>
      <point x="1235" y="1462" type="line"/>
      <point x="1028" y="1462" type="line"/>
      <point x="578" y="567" type="line" smooth="yes"/>
      <point x="514" y="449"/>
      <point x="461" y="332"/>
      <point x="426" y="244" type="curve"/>
      <point x="418" y="246" type="line"/>
      <point x="428" y="330"/>
      <point x="438" y="477"/>
      <point x="438" y="610" type="curve" smooth="yes"/>
      <point x="438" y="1309" type="line"/>
      <point x="600" y="1354" type="line"/>
      <point x="600" y="1462" type="line"/>
      <point x="92" y="1462" type="line"/>
      <point x="92" y="1354" type="line"/>
      <point x="254" y="1309" type="line"/>
      <point x="254" y="-338" type="line"/>
      <point x="92" y="-383" type="line"/>
      <point x="92" y="-492" type="line"/>
      <point x="600" y="-492" type="line"/>
      <point x="600" y="-383" type="line"/>
    </contour>
  </outline>
</glyph>
<glyph name="uniA774" format="2">
  <advance width="1638"/>
  <unicode hex="A774"/>
  <outline>
    <contour>
      <point x="1051" y="0" type="line"/>
      <point x="1606" y="0" type="line"/>
      <point x="1606" y="147" type="line"/>
      <point x="1051" y="147" type="line"/>
    </contour>
    <contour>
      <point x="1354" y="467" type="line"/>
      <point x="1014" y="-322" type="line"/>
      <point x="1155" y="-322" type="line"/>
      <point x="1493" y="467" type="line"/>
    </contour>
    <component base="n"/>
  </outline>
</glyph>
<glyph name="uniA77D" format="2">
  <advance width="1219"/>
  <unicode hex="A77D"/>
  <outline>
    <contour>
      <point x="719" y="973" type="curve" smooth="yes"/>
      <point x="543" y="1069"/>
      <point x="512" y="1102"/>
      <point x="512" y="1190" type="curve" smooth="yes"/>
      <point x="512" y="1274"/>
      <point x="582" y="1313"/>
      <point x="711" y="1313" type="curve" smooth="yes"/>
      <point x="1036" y="1313" type="line"/>
      <point x="1036" y="1464" type="line"/>
      <point x="145" y="1464" type="line"/>
      <point x="145" y="1313" type="line"/>
      <point x="412" y="1313" type="line"/>
      <point x="360" y="1278"/>
      <point x="328" y="1229"/>
      <point x="328" y="1161" type="curve" smooth="yes"/>
      <point x="328" y="1051"/>
      <point x="379" y="989"/>
      <point x="528" y="895" type="curve"/>
      <point x="324" y="846"/>
      <point x="117" y="719"/>
      <point x="117" y="428" type="curve" smooth="yes"/>
      <point x="117" y="145"/>
      <point x="319" y="-20"/>
      <point x="606" y="-20" type="curve" smooth="yes"/>
      <point x="920" y="-20"/>
      <point x="1102" y="162"/>
      <point x="1102" y="459" type="curve" smooth="yes"/>
      <point x="1102" y="709"/>
      <point x="961" y="840"/>
    </contour>
    <contour>
      <point x="612" y="129" type="curve" smooth="yes"/>
      <point x="428" y="129"/>
      <point x="303" y="244"/>
      <point x="303" y="436" type="curve" smooth="yes"/>
      <point x="303" y="678"/>
      <point x="479" y="772"/>
      <point x="662" y="817" type="curve"/>
      <point x="829" y="715"/>
      <point x="915" y="629"/>
      <point x="915" y="457" type="curve" smooth="yes"/>
      <point x="915" y="248"/>
      <point x="805" y="129"/>
    </contour>
  </outline>
</glyph>
<glyph name="uniA785" format="2">
  <advance width="850"/>
  <unicode hex="A785"/>
  <outline>
    <contour>
      <point x="680" y="1120" type="curve" smooth="yes"/>
      <point x="526" y="1120"/>
      <point x="426" y="1040"/>
      <point x="350" y="907" type="curve"/>
      <point x="340" y="907" type="line"/>
      <point x="317" y="1100" type="line"/>
      <point x="174" y="1100" type="line"/>
      <point x="174" y="-492" type="line"/>
      <point x="354" y="-492" type="line"/>
      <point x="354" y="588" type="line" smooth="yes"/>
      <point x="354" y="805"/>
      <point x="483" y="952"/>
      <point x="668" y="952" type="curve" smooth="yes"/>
      <point x="709" y="952"/>
      <point x="754" y="946"/>
      <point x="791" y="938" type="curve"/>
      <point x="809" y="1108" type="line"/>
      <point x="768" y="1116"/>
      <point x="719" y="1120"/>
    </contour>
  </outline>
</glyph>
<glyph name="uniA79C" format="2">
  <advance width="1483"/>
  <unicode hex="A79C"/>
  <outline>
    <contour>
      <point x="659" y="-20" type="curve" smooth="yes"/>
      <point x="1139" y="-20"/>
      <point x="1358" y="285"/>
      <point x="1358" y="733" type="curve" smooth="yes"/>
      <point x="1358" y="1184"/>
      <point x="1137" y="1483"/>
      <point x="676" y="1483" type="curve" smooth="yes"/>
      <point x="330" y="1483"/>
      <point x="154" y="1329"/>
      <point x="154" y="1106" type="curve" smooth="yes"/>
      <point x="154" y="918"/>
      <point x="254" y="809"/>
      <point x="469" y="768" type="curve"/>
      <point x="469" y="762" type="line"/>
      <point x="225" y="725"/>
      <point x="100" y="596"/>
      <point x="100" y="403" type="curve" smooth="yes"/>
      <point x="100" y="137"/>
      <point x="301" y="-20"/>
    </contour>
    <contour>
      <point x="666" y="139" type="curve" smooth="yes"/>
      <point x="453" y="139"/>
      <point x="289" y="219"/>
      <point x="289" y="416" type="curve" smooth="yes"/>
      <point x="289" y="592"/>
      <point x="438" y="682"/>
      <point x="725" y="682" type="curve" smooth="yes"/>
      <point x="811" y="682" type="line"/>
      <point x="811" y="834" type="line"/>
      <point x="727" y="834" type="line" smooth="yes"/>
      <point x="444" y="834"/>
      <point x="338" y="926"/>
      <point x="338" y="1092" type="curve" smooth="yes"/>
      <point x="338" y="1235"/>
      <point x="453" y="1325"/>
      <point x="674" y="1325" type="curve" smooth="yes"/>
      <point x="1004" y="1323"/>
      <point x="1161" y="1108"/>
      <point x="1161" y="733" type="curve" smooth="yes"/>
      <point x="1161" y="352"/>
      <point x="1004" y="139"/>
    </contour>
  </outline>
</glyph>
<glyph name="uniAB33" format="2">
  <advance width="1159"/>
  <unicode hex="AB33"/>
  <outline>
    <contour>
      <point x="604" y="1120" type="curve" smooth="yes"/>
      <point x="293" y="1120"/>
      <point x="109" y="893"/>
      <point x="109" y="541" type="curve" smooth="yes"/>
      <point x="109" y="184"/>
      <point x="305" y="-20"/>
      <point x="639" y="-20" type="curve" smooth="yes"/>
      <point x="782" y="-20"/>
      <point x="887" y="0"/>
      <point x="1001" y="53" type="curve"/>
      <point x="1001" y="201" type="line"/>
      <point x="874" y="145"/>
      <point x="778" y="125"/>
      <point x="645" y="125" type="curve" smooth="yes"/>
      <point x="428" y="125"/>
      <point x="293" y="258"/>
      <point x="293" y="526" type="curve" smooth="yes"/>
      <point x="293" y="565"/>
      <point x="295" y="604"/>
      <point x="301" y="643" type="curve"/>
      <point x="1051" y="643" type="line"/>
      <point x="1040" y="946"/>
      <point x="877" y="1120"/>
    </contour>
    <contour>
      <point x="604" y="981" type="curve" smooth="yes"/>
      <point x="756" y="981"/>
      <point x="836" y="885"/>
      <point x="864" y="758" type="curve"/>
      <point x="319" y="758" type="line"/>
      <point x="362" y="905"/>
      <point x="461" y="981"/>
    </contour>
    <contour>
      <point x="6" y="500" type="line"/>
      <point x="6" y="387" type="line"/>
      <point x="1153" y="387" type="line"/>
      <point x="1153" y="500" type="line"/>
    </contour>
  </outline>
</glyph>
<glyph name="uniAB38" format="2">
  <advance width="774"/>
  <unicode hex="AB38"/>
  <anchor x="389" y="4" name="bottom"/>
  <anchor x="393" y="1554" name="top"/>
  <outline>
    <contour>
      <point x="297" y="0" type="line"/>
      <point x="477" y="0" type="line"/>
      <point x="477" y="475" type="line"/>
      <point x="500" y="461"/>
      <point x="526" y="453"/>
      <point x="553" y="453" type="curve" smooth="yes"/>
      <point x="672" y="453"/>
      <point x="760" y="545"/>
      <point x="774" y="719" type="curve"/>
      <point x="670" y="719" type="line"/>
      <point x="649" y="623"/>
      <point x="614" y="582"/>
      <point x="557" y="582" type="curve" smooth="yes"/>
      <point x="530" y="582"/>
      <point x="504" y="596"/>
      <point x="477" y="614" type="curve"/>
      <point x="477" y="842" type="line"/>
      <point x="500" y="829"/>
      <point x="526" y="821"/>
      <point x="553" y="821" type="curve" smooth="yes"/>
      <point x="672" y="821"/>
      <point x="760" y="911"/>
      <point x="774" y="1087" type="curve"/>
      <point x="670" y="1087" type="line"/>
      <point x="649" y="989"/>
      <point x="614" y="950"/>
      <point x="557" y="950" type="curve" smooth="yes"/>
      <point x="530" y="950"/>
      <point x="504" y="963"/>
      <point x="477" y="981" type="curve"/>
      <point x="477" y="1556" type="line"/>
      <point x="297" y="1556" type="line"/>
      <point x="297" y="1065" type="line"/>
      <point x="274" y="1077"/>
      <point x="250" y="1085"/>
      <point x="223" y="1085" type="curve" smooth="yes"/>
      <point x="100" y="1085"/>
      <point x="10" y="989"/>
      <point x="0" y="819" type="curve"/>
      <point x="104" y="819" type="line"/>
      <point x="123" y="920"/>
      <point x="160" y="956"/>
      <point x="215" y="956" type="curve" smooth="yes"/>
      <point x="244" y="956"/>
      <point x="270" y="942"/>
      <point x="297" y="926" type="curve"/>
      <point x="297" y="696" type="line"/>
      <point x="274" y="709"/>
      <point x="250" y="717"/>
      <point x="223" y="717" type="curve" smooth="yes"/>
      <point x="100" y="717"/>
      <point x="10" y="621"/>
      <point x="0" y="453" type="curve"/>
      <point x="104" y="453" type="line"/>
      <point x="123" y="551"/>
      <point x="160" y="588"/>
      <point x="215" y="588" type="curve" smooth="yes"/>
      <point x="244" y="588"/>
      <point x="270" y="575"/>
      <point x="297" y="557" type="curve"/>
    </contour>
  </outline>
</glyph>
<glyph name="uniAB3C" format="2">
  <advance width="1264"/>
  <unicode hex="AB3C"/>
  <outline>
    <contour>
      <point x="1112" y="-500" type="curve"/>
      <point x="1225" y="-459" type="line"/>
      <point x="1130" y="-209"/>
      <point x="963" y="-31"/>
      <point x="756" y="-31" type="curve" smooth="yes"/>
      <point x="608" y="-31"/>
      <point x="510" y="-117"/>
      <point x="510" y="-262" type="curve" smooth="yes"/>
      <point x="510" y="-406"/>
      <point x="612" y="-492"/>
      <point x="766" y="-492" type="curve" smooth="yes"/>
      <point x="1004" y="-492"/>
      <point x="1100" y="-311"/>
      <point x="1100" y="-78" type="curve" smooth="yes"/>
      <point x="1100" y="719" type="line" smooth="yes"/>
      <point x="1100" y="993"/>
      <point x="963" y="1120"/>
      <point x="719" y="1120" type="curve" smooth="yes"/>
      <point x="555" y="1120"/>
      <point x="428" y="1067"/>
      <point x="356" y="952" type="curve"/>
      <point x="344" y="952" type="line"/>
      <point x="317" y="1100" type="line"/>
      <point x="174" y="1100" type="line"/>
      <point x="174" y="0" type="line"/>
      <point x="354" y="0" type="line"/>
      <point x="354" y="571" type="line" smooth="yes"/>
      <point x="354" y="834"/>
      <point x="438" y="969"/>
      <point x="678" y="969" type="curve" smooth="yes"/>
      <point x="842" y="969"/>
      <point x="920" y="883"/>
      <point x="920" y="692" type="curve" smooth="yes"/>
      <point x="920" y="-113" type="line" smooth="yes"/>
      <point x="920" y="-283"/>
      <point x="850" y="-369"/>
      <point x="752" y="-369" type="curve" smooth="yes"/>
      <point x="672" y="-369"/>
      <point x="645" y="-315"/>
      <point x="645" y="-260" type="curve" smooth="yes"/>
      <point x="645" y="-199"/>
      <point x="688" y="-150"/>
      <point x="772" y="-150" type="curve" smooth="yes"/>
      <point x="905" y="-150"/>
      <point x="1034" y="-291"/>
    </contour>
  </outline>
</glyph>
<glyph name="uniAB54" format="2">
  <advance width="1194"/>
  <unicode hex="AB54"/>
  <outline>
    <contour>
      <point x="1016" y="-500" type="curve" smooth="yes"/>
      <point x="1196" y="-500"/>
      <point x="1294" y="-389"/>
      <point x="1294" y="-229" type="curve" smooth="yes"/>
      <point x="1294" y="-82"/>
      <point x="1188" y="29"/>
      <point x="1026" y="29" type="curve" smooth="yes"/>
      <point x="934" y="29"/>
      <point x="862" y="-10"/>
      <point x="815" y="-70" type="curve"/>
      <point x="649" y="336" type="line"/>
      <point x="1075" y="1100" type="line"/>
      <point x="887" y="1100" type="line"/>
      <point x="567" y="502" type="line"/>
      <point x="408" y="920" type="line" smooth="yes"/>
      <point x="362" y="1044"/>
      <point x="315" y="1114"/>
      <point x="182" y="1114" type="curve" smooth="yes"/>
      <point x="135" y="1114"/>
      <point x="92" y="1104"/>
      <point x="51" y="1092" type="curve"/>
      <point x="51" y="952" type="line"/>
      <point x="84" y="961"/>
      <point x="115" y="965"/>
      <point x="137" y="965" type="curve" smooth="yes"/>
      <point x="190" y="965"/>
      <point x="229" y="930"/>
      <point x="266" y="838" type="curve" smooth="yes"/>
      <point x="457" y="356" type="line"/>
      <point x="-23" y="-492" type="line"/>
      <point x="170" y="-492" type="line"/>
      <point x="541" y="190" type="line"/>
      <point x="688" y="-193" type="line" smooth="yes"/>
      <point x="770" y="-412"/>
      <point x="852" y="-500"/>
    </contour>
    <contour>
      <point x="1157" y="-231" type="curve" smooth="yes"/>
      <point x="1157" y="-324"/>
      <point x="1102" y="-373"/>
      <point x="1022" y="-373" type="curve" smooth="yes"/>
      <point x="942" y="-373"/>
      <point x="889" y="-319"/>
      <point x="889" y="-236" type="curve" smooth="yes"/>
      <point x="889" y="-152"/>
      <point x="940" y="-98"/>
      <point x="1022" y="-98" type="curve" smooth="yes"/>
      <point x="1102" y="-98"/>
      <point x="1157" y="-152"/>
    </contour>
  </outline>
</glyph>
<glyph name="uniAB56" format="2">
  <advance width="1282"/>
  <unicode hex="AB56"/>
  <outline>
    <contour>
      <point x="1012" y="-20" type="curve" smooth="yes"/>
      <point x="1169" y="-20"/>
      <point x="1264" y="84"/>
      <point x="1264" y="231" type="curve" smooth="yes"/>
      <point x="1264" y="371"/>
      <point x="1163" y="473"/>
      <point x="1014" y="473" type="curve" smooth="yes"/>
      <point x="913" y="473"/>
      <point x="842" y="428"/>
      <point x="803" y="354" type="curve"/>
      <point x="655" y="563" type="line"/>
      <point x="1024" y="1100" type="line"/>
      <point x="821" y="1100" type="line"/>
      <point x="541" y="682" type="line"/>
      <point x="260" y="1100" type="line"/>
      <point x="53" y="1100" type="line"/>
      <point x="424" y="563" type="line"/>
      <point x="37" y="0" type="line"/>
      <point x="240" y="0" type="line"/>
      <point x="541" y="444" type="line"/>
      <point x="758" y="127" type="line" smooth="yes"/>
      <point x="815" y="41"/>
      <point x="889" y="-20"/>
    </contour>
    <contour>
      <point x="1139" y="229" type="curve" smooth="yes"/>
      <point x="1139" y="143"/>
      <point x="1087" y="96"/>
      <point x="1012" y="96" type="curve" smooth="yes"/>
      <point x="936" y="96"/>
      <point x="885" y="147"/>
      <point x="885" y="227" type="curve" smooth="yes"/>
      <point x="885" y="305"/>
      <point x="934" y="356"/>
      <point x="1012" y="356" type="curve" smooth="yes"/>
      <point x="1087" y="356"/>
      <point x="1139" y="307"/>
    </contour>
  </outline>
</glyph>
<glyph name="uniFE22" format="2">
  <unicode hex="FE22"/>
  <anchor x="0" y="1098" name="_top"/>
  <outline>
    <contour>
      <point x="0" y="1307" type="curve"/>
      <point x="0" y="1444" type="line"/>
      <point x="-137" y="1475"/>
      <point x="-272" y="1505"/>
      <point x="-426" y="1505" type="curve" smooth="yes"/>
      <point x="-623" y="1505"/>
      <point x="-756" y="1427"/>
      <point x="-788" y="1243" type="curve"/>
      <point x="-684" y="1243" type="line"/>
      <point x="-666" y="1319"/>
      <point x="-594" y="1368"/>
      <point x="-430" y="1368" type="curve" smooth="yes"/>
      <point x="-274" y="1368"/>
      <point x="-137" y="1337"/>
    </contour>
  </outline>
</glyph>
<glyph name="uniFE2F" format="2">
  <unicode hex="FE2F"/>
  <anchor x="2" y="1098" name="_top"/>
  <outline>
    <contour>
      <point x="-313" y="1260" type="line"/>
      <point x="197" y="1260" type="line" smooth="yes"/>
      <point x="289" y="1260"/>
      <point x="315" y="1300"/>
      <point x="315" y="1368" type="curve" smooth="yes"/>
      <point x="315" y="1440"/>
      <point x="283" y="1470"/>
      <point x="219" y="1470" type="curve" smooth="yes"/>
      <point x="162" y="1470"/>
      <point x="131" y="1444"/>
      <point x="123" y="1380" type="curve"/>
      <point x="-313" y="1380" type="line"/>
    </contour>
  </outline>
</glyph>
<glyph name="ae.sc" format="2">
  <advance width="1432"/>
  <anchor x="717" y="0" name="bottom"/>
  <anchor x="737" y="1171" name="top"/>
  <outline>
    <contour>
      <point x="711" y="334" type="line"/>
      <point x="711" y="0" type="line"/>
      <point x="1339" y="0" type="line"/>
      <point x="1339" y="145" type="line"/>
      <point x="889" y="145" type="line"/>
      <point x="889" y="537" type="line"/>
      <point x="1311" y="537" type="line"/>
      <point x="1311" y="680" type="line"/>
      <point x="889" y="680" type="line"/>
      <point x="889" y="1026" type="line"/>
      <point x="1339" y="1026" type="line"/>
      <point x="1339" y="1171" type="line"/>
      <point x="518" y="1171" type="line"/>
      <point x="-4" y="0" type="line"/>
      <point x="195" y="0" type="line"/>
      <point x="336" y="334" type="line"/>
    </contour>
    <contour>
      <point x="711" y="1024" type="line"/>
      <point x="711" y="485" type="line"/>
      <point x="397" y="485" type="line"/>
      <point x="631" y="1024" type="line"/>
    </contour>
  </outline>
</glyph>
<glyph name="aogonek.loclNAV" format="2">
  <advance width="1149"/>
  <anchor x="575" y="-451" name="bottom"/>
  <anchor x="575" y="1098" name="top"/>
  <outline>
    <contour>
      <point x="616" y="-451" type="curve" smooth="yes"/>
      <point x="670" y="-451"/>
      <point x="705" y="-442"/>
      <point x="743" y="-432" type="curve"/>
      <point x="743" y="-317" type="line"/>
      <point x="721" y="-324"/>
      <point x="690" y="-330"/>
      <point x="645" y="-330" type="curve" smooth="yes"/>
      <point x="588" y="-330"/>
      <point x="553" y="-299"/>
      <point x="553" y="-238" type="curve" smooth="yes"/>
      <point x="553" y="-125"/>
      <point x="616" y="-37"/>
      <point x="739" y="80" type="curve"/>
      <point x="641" y="111" type="line"/>
      <point x="539" y="37"/>
      <point x="406" y="-109"/>
      <point x="406" y="-258" type="curve" smooth="yes"/>
      <point x="406" y="-379"/>
      <point x="471" y="-451"/>
    </contour>
    <component base="a"/>
  </outline>
</glyph>
<glyph name="circumflexgravecomb" format="2">
  <outline>
    <contour>
      <point x="-913" y="1241" type="line"/>
      <point x="-813" y="1241" type="line"/>
      <point x="-745" y="1286"/>
      <point x="-672" y="1343"/>
      <point x="-602" y="1407" type="curve"/>
      <point x="-530" y="1343"/>
      <point x="-459" y="1286"/>
      <point x="-391" y="1241" type="curve"/>
      <point x="-289" y="1241" type="line"/>
      <point x="-289" y="1264" type="line"/>
      <point x="-358" y="1341"/>
      <point x="-442" y="1434"/>
      <point x="-506" y="1526" type="curve"/>
      <point x="-696" y="1526" type="line"/>
      <point x="-760" y="1434"/>
      <point x="-846" y="1341"/>
      <point x="-913" y="1264" type="curve"/>
    </contour>
    <contour>
      <point x="-932" y="1436" type="curve"/>
      <point x="-834" y="1436" type="line"/>
      <point x="-834" y="1458" type="line"/>
      <point x="-887" y="1526"/>
      <point x="-918" y="1575"/>
      <point x="-961" y="1663" type="curve"/>
      <point x="-1139" y="1663" type="line"/>
      <point x="-1139" y="1642" type="line"/>
      <point x="-1079" y="1563"/>
      <point x="-1008" y="1493"/>
    </contour>
  </outline>
</glyph>
<glyph name="cyrillicbighookUC" format="2">
  <advance width="438"/>
  <outline>
    <contour>
      <point x="147" y="-406" type="curve" smooth="yes"/>
      <point x="311" y="-406"/>
      <point x="387" y="-309"/>
      <point x="387" y="-133" type="curve" smooth="yes"/>
      <point x="387" y="164" type="line"/>
      <point x="205" y="164" type="line"/>
      <point x="205" y="0" type="line"/>
      <point x="225" y="0" type="line"/>
      <point x="225" y="-143" type="line" smooth="yes"/>
      <point x="225" y="-217"/>
      <point x="188" y="-250"/>
      <point x="127" y="-250" type="curve" smooth="yes"/>
      <point x="84" y="-250"/>
      <point x="47" y="-240"/>
      <point x="25" y="-231" type="curve"/>
      <point x="25" y="-381" type="line"/>
      <point x="51" y="-391"/>
      <point x="96" y="-406"/>
    </contour>
  </outline>
</glyph>
<glyph name="guilsinglleft.sc" format="2">
  <advance width="522"/>
  <outline>
    <contour>
      <point x="461" y="723" type="line"/>
      <point x="340" y="793" type="line"/>
      <point x="63" y="449" type="line"/>
      <point x="63" y="426" type="line"/>
      <point x="340" y="86" type="line"/>
      <point x="461" y="154" type="line"/>
      <point x="252" y="438" type="line"/>
    </contour>
  </outline>
</glyph>
<glyph name="guilsinglright.sc" format="2">
  <advance width="522"/>
  <outline>
    <contour>
      <point x="59" y="154" type="line"/>
      <point x="180" y="86" type="line"/>
      <point x="457" y="428" type="line"/>
      <point x="457" y="449" type="line"/>
      <point x="180" y="793" type="line"/>
      <point x="59" y="723" type="line"/>
      <point x="272" y="438" type="line"/>
    </contour>
  </outline>
</glyph>
<glyph name="lslash.sc" format="2">
  <advance width="899"/>
  <anchor x="451" y="0" name="bottom"/>
  <anchor x="451" y="1171" name="top"/>
  <outline>
    <contour>
      <point x="854" y="150" type="line"/>
      <point x="332" y="150" type="line"/>
      <point x="332" y="555" type="line"/>
      <point x="651" y="758" type="line"/>
      <point x="573" y="877" type="line"/>
      <point x="332" y="719" type="line"/>
      <point x="332" y="1171" type="line"/>
      <point x="154" y="1171" type="line"/>
      <point x="154" y="625" type="line"/>
      <point x="-27" y="512" type="line"/>
      <point x="49" y="391" type="line"/>
      <point x="154" y="461" type="line"/>
      <point x="154" y="0" type="line"/>
      <point x="854" y="0" type="line"/>
    </contour>
  </outline>
</glyph>
<glyph name="nine.lf" format="2">
  <advance width="1171"/>
  <outline>
    <contour>
      <point x="1065" y="838" type="curve" smooth="yes"/>
      <point x="1065" y="1274"/>
      <point x="848" y="1483"/>
      <point x="569" y="1483" type="curve" smooth="yes"/>
      <point x="287" y="1483"/>
      <point x="102" y="1294"/>
      <point x="102" y="989" type="curve" smooth="yes"/>
      <point x="102" y="707"/>
      <point x="270" y="547"/>
      <point x="522" y="547" type="curve" smooth="yes"/>
      <point x="700" y="547"/>
      <point x="809" y="623"/>
      <point x="870" y="717" type="curve"/>
      <point x="883" y="717" type="line"/>
      <point x="870" y="397"/>
      <point x="770" y="127"/>
      <point x="389" y="127" type="curve" smooth="yes"/>
      <point x="328" y="127"/>
      <point x="258" y="137"/>
      <point x="209" y="154" type="curve"/>
      <point x="209" y="0" type="line"/>
      <point x="254" y="-14"/>
      <point x="338" y="-20"/>
      <point x="393" y="-20" type="curve" smooth="yes"/>
      <point x="946" y="-20"/>
      <point x="1065" y="418"/>
    </contour>
    <contour>
      <point x="569" y="1331" type="curve" smooth="yes"/>
      <point x="778" y="1331"/>
      <point x="883" y="1133"/>
      <point x="883" y="956" type="curve" smooth="yes"/>
      <point x="883" y="825"/>
      <point x="758" y="690"/>
      <point x="561" y="690" type="curve" smooth="yes"/>
      <point x="371" y="690"/>
      <point x="281" y="805"/>
      <point x="281" y="991" type="curve" smooth="yes"/>
      <point x="281" y="1221"/>
      <point x="399" y="1331"/>
    </contour>
  </outline>
</glyph>
<glyph name="six.osf" format="2">
  <advance width="1178"/>
  <outline>
    <contour>
      <point x="115" y="621" type="curve" smooth="yes"/>
      <point x="115" y="246"/>
      <point x="281" y="-20"/>
      <point x="614" y="-20" type="curve" smooth="yes"/>
      <point x="909" y="-20"/>
      <point x="1081" y="174"/>
      <point x="1081" y="473" type="curve" smooth="yes"/>
      <point x="1081" y="756"/>
      <point x="924" y="924"/>
      <point x="651" y="924" type="curve" smooth="yes"/>
      <point x="510" y="924"/>
      <point x="385" y="858"/>
      <point x="297" y="733" type="curve"/>
      <point x="285" y="733" type="line"/>
      <point x="303" y="1133"/>
      <point x="473" y="1337"/>
      <point x="784" y="1337" type="curve" smooth="yes"/>
      <point x="856" y="1337"/>
      <point x="918" y="1331"/>
      <point x="973" y="1315" type="curve"/>
      <point x="973" y="1464" type="line"/>
      <point x="913" y="1477"/>
      <point x="852" y="1485"/>
      <point x="791" y="1485" type="curve" smooth="yes"/>
      <point x="365" y="1487"/>
      <point x="115" y="1204"/>
    </contour>
    <contour>
      <point x="610" y="131" type="curve" smooth="yes"/>
      <point x="420" y="131"/>
      <point x="301" y="324"/>
      <point x="301" y="506" type="curve" smooth="yes"/>
      <point x="299" y="649"/>
      <point x="457" y="782"/>
      <point x="621" y="778" type="curve" smooth="yes"/>
      <point x="801" y="778"/>
      <point x="901" y="664"/>
      <point x="901" y="473" type="curve" smooth="yes"/>
      <point x="901" y="250"/>
      <point x="793" y="131"/>
    </contour>
  </outline>
</glyph>
<glyph name="tildeacute" format="2">
  <outline>
    <contour>
      <point x="-344" y="1239" type="curve"/>
      <point x="-240" y="1239" type="line"/>
      <point x="-223" y="1300"/>
      <point x="-205" y="1339"/>
      <point x="-145" y="1339" type="curve" smooth="yes"/>
      <point x="-61" y="1339"/>
      <point x="41" y="1241"/>
      <point x="145" y="1241" type="curve" smooth="yes"/>
      <point x="266" y="1241"/>
      <point x="330" y="1333"/>
      <point x="344" y="1475" type="curve"/>
      <point x="242" y="1475" type="line"/>
      <point x="223" y="1413"/>
      <point x="205" y="1374"/>
      <point x="147" y="1374" type="curve" smooth="yes"/>
      <point x="68" y="1374"/>
      <point x="-33" y="1473"/>
      <point x="-145" y="1473" type="curve" smooth="yes"/>
      <point x="-264" y="1473"/>
      <point x="-330" y="1382"/>
    </contour>
    <contour>
      <point x="-133" y="1526" type="line"/>
      <point x="-14" y="1526" type="line"/>
      <point x="82" y="1599"/>
      <point x="227" y="1708"/>
      <point x="279" y="1784" type="curve"/>
      <point x="279" y="1804" type="line"/>
      <point x="61" y="1804" type="line"/>
      <point x="14" y="1712"/>
      <point x="-74" y="1626"/>
      <point x="-133" y="1550" type="curve"/>
    </contour>
  </outline>
</glyph>
<glyph name="tildedieresis" format="2">
  <outline>
    <contour>
      <point x="-365" y="1239" type="curve"/>
      <point x="-270" y="1239" type="line"/>
      <point x="-252" y="1300"/>
      <point x="-223" y="1339"/>
      <point x="-158" y="1339" type="curve" smooth="yes"/>
      <point x="-68" y="1339"/>
      <point x="39" y="1241"/>
      <point x="154" y="1241" type="curve" smooth="yes"/>
      <point x="283" y="1241"/>
      <point x="350" y="1333"/>
      <point x="367" y="1475" type="curve"/>
      <point x="274" y="1475" type="line"/>
      <point x="254" y="1413"/>
      <point x="225" y="1374"/>
      <point x="162" y="1374" type="curve" smooth="yes"/>
      <point x="76" y="1374"/>
      <point x="-29" y="1473"/>
      <point x="-150" y="1473" type="curve" smooth="yes"/>
      <point x="-279" y="1473"/>
      <point x="-348" y="1382"/>
    </contour>
    <contour>
      <point x="-193" y="1538" type="curve" smooth="yes"/>
      <point x="-141" y="1538"/>
      <point x="-96" y="1571"/>
      <point x="-96" y="1640" type="curve" smooth="yes"/>
      <point x="-96" y="1712"/>
      <point x="-141" y="1741"/>
      <point x="-193" y="1741" type="curve" smooth="yes"/>
      <point x="-246" y="1741"/>
      <point x="-289" y="1712"/>
      <point x="-289" y="1640" type="curve" smooth="yes"/>
      <point x="-289" y="1571"/>
      <point x="-246" y="1538"/>
    </contour>
    <contour>
      <point x="190" y="1538" type="curve" smooth="yes"/>
      <point x="242" y="1538"/>
      <point x="287" y="1571"/>
      <point x="287" y="1640" type="curve" smooth="yes"/>
      <point x="287" y="1712"/>
      <point x="242" y="1741"/>
      <point x="190" y="1741" type="curve" smooth="yes"/>
      <point x="139" y="1741"/>
      <point x="96" y="1712"/>
      <point x="96" y="1640" type="curve" smooth="yes"/>
      <point x="96" y="1571"/>
      <point x="139" y="1538"/>
    </contour>
  </outline>
</glyph>
<glyph name="tildemacron" format="2">
  <outline>
    <contour>
      <point x="-344" y="1239" type="curve"/>
      <point x="-240" y="1239" type="line"/>
      <point x="-223" y="1300"/>
      <point x="-205" y="1339"/>
      <point x="-145" y="1339" type="curve" smooth="yes"/>
      <point x="-61" y="1339"/>
      <point x="41" y="1241"/>
      <point x="145" y="1241" type="curve" smooth="yes"/>
      <point x="266" y="1241"/>
      <point x="330" y="1333"/>
      <point x="344" y="1475" type="curve"/>
      <point x="242" y="1475" type="line"/>
      <point x="223" y="1413"/>
      <point x="205" y="1374"/>
      <point x="147" y="1374" type="curve" smooth="yes"/>
      <point x="68" y="1374"/>
      <point x="-33" y="1473"/>
      <point x="-145" y="1473" type="curve" smooth="yes"/>
      <point x="-264" y="1473"/>
      <point x="-330" y="1382"/>
    </contour>
    <contour>
      <point x="-305" y="1567" type="line"/>
      <point x="303" y="1567" type="line"/>
      <point x="303" y="1712" type="line"/>
      <point x="-305" y="1712" type="line"/>
    </contour>
  </outline>
</glyph>
<glyph name="uni029Ddotless" format="2">
  <advance width="528"/>
  <anchor x="45" y="-492" name="bottom"/>
  <anchor x="264" y="1098" name="top"/>
  <outline>
    <contour>
      <point x="82" y="-492" type="curve" smooth="yes"/>
      <point x="229" y="-492"/>
      <point x="348" y="-418"/>
      <point x="354" y="-147" type="curve"/>
      <point x="508" y="-147" type="line"/>
      <point x="508" y="0" type="line"/>
      <point x="354" y="0" type="line"/>
      <point x="354" y="1098" type="line"/>
      <point x="174" y="1098" type="line"/>
      <point x="174" y="0" type="line"/>
      <point x="86" y="0" type="line" smooth="yes"/>
      <point x="-113" y="0"/>
      <point x="-195" y="-100"/>
      <point x="-195" y="-250" type="curve" smooth="yes"/>
      <point x="-195" y="-393"/>
      <point x="-82" y="-492"/>
    </contour>
    <contour>
      <point x="70" y="-344" type="curve" smooth="yes"/>
      <point x="-4" y="-344"/>
      <point x="-25" y="-299"/>
      <point x="-25" y="-246" type="curve" smooth="yes"/>
      <point x="-25" y="-170"/>
      <point x="31" y="-147"/>
      <point x="96" y="-147" type="curve" smooth="yes"/>
      <point x="174" y="-147" type="line"/>
      <point x="174" y="-182" type="line" smooth="yes"/>
      <point x="174" y="-301"/>
      <point x="133" y="-344"/>
    </contour>
  </outline>
</glyph>
<glyph name="uni1FDE02C9" format="2">
  <advance width="819"/>
  <anchor x="408" y="1098" name="_top"/>
  <anchor x="416" y="1790" name="top"/>
  <outline>
    <contour>
      <point x="428" y="1446" type="line"/>
      <point x="514" y="1446" type="line"/>
      <point x="592" y="1542"/>
      <point x="674" y="1663"/>
      <point x="717" y="1749" type="curve"/>
      <point x="717" y="1769" type="line"/>
      <point x="520" y="1769" type="line"/>
      <point x="500" y="1675"/>
      <point x="459" y="1552"/>
      <point x="428" y="1470" type="curve"/>
    </contour>
    <contour>
      <point x="106" y="1225" type="line"/>
      <point x="713" y="1225" type="line"/>
      <point x="713" y="1370" type="line"/>
      <point x="106" y="1370" type="line"/>
    </contour>
    <contour>
      <point x="385" y="1425" type="curve"/>
      <point x="385" y="1501" type="line"/>
      <point x="293" y="1507"/>
      <point x="264" y="1550"/>
      <point x="264" y="1595" type="curve" smooth="yes"/>
      <point x="324" y="1595"/>
      <point x="371" y="1626"/>
      <point x="371" y="1692" type="curve" smooth="yes"/>
      <point x="371" y="1761"/>
      <point x="324" y="1790"/>
      <point x="264" y="1790" type="curve" smooth="yes"/>
      <point x="199" y="1790"/>
      <point x="160" y="1739"/>
      <point x="160" y="1669" type="curve" smooth="yes"/>
      <point x="160" y="1524"/>
      <point x="225" y="1442"/>
    </contour>
  </outline>
</glyph>
